<svg width="74" height="74" viewBox="0 0 74 74" fill="none" xmlns="http://www.w3.org/2000/svg">
<circle cx="37" cy="37" r="31" fill="white"/>
<path fill-rule="evenodd" clip-rule="evenodd" d="M36.8 73.6C46.56 73.6 55.9202 69.7229 62.8215 62.8215C69.7229 55.9202 73.6 46.56 73.6 36.8C73.6 27.04 69.7229 17.6798 62.8215 10.7785C55.9202 3.87713 46.56 0 36.8 0C27.04 0 17.6798 3.87713 10.7785 10.7785C3.87713 17.6798 0 27.04 0 36.8C0 46.56 3.87713 55.9202 10.7785 62.8215C17.6798 69.7229 27.04 73.6 36.8 73.6V73.6ZM41.4 23C41.4 21.78 40.9154 20.61 40.0527 19.7473C39.19 18.8846 38.02 18.4 36.8 18.4C35.58 18.4 34.41 18.8846 33.5473 19.7473C32.6846 20.61 32.2 21.78 32.2 23V32.2H23C21.78 32.2 20.61 32.6846 19.7473 33.5473C18.8846 34.41 18.4 35.58 18.4 36.8C18.4 38.02 18.8846 39.19 19.7473 40.0527C20.61 40.9154 21.78 41.4 23 41.4H32.2V50.6C32.2 51.82 32.6846 52.99 33.5473 53.8527C34.41 54.7154 35.58 55.2 36.8 55.2C38.02 55.2 39.19 54.7154 40.0527 53.8527C40.9154 52.99 41.4 51.82 41.4 50.6V41.4H50.6C51.82 41.4 52.99 40.9154 53.8527 40.0527C54.7154 39.19 55.2 38.02 55.2 36.8C55.2 35.58 54.7154 34.41 53.8527 33.5473C52.99 32.6846 51.82 32.2 50.6 32.2H41.4V23Z" fill="#FF5F5F"/>
</svg>
