<svg xmlns="http://www.w3.org/2000/svg" xmlns:xlink="http://www.w3.org/1999/xlink" width="1739.663" height="964.624" viewBox="0 0 1739.663 964.624"><defs><clipPath id="a"><rect width="1739.663" height="964.624" fill="none"/></clipPath></defs><g clip-path="url(#a)"><path d="M907.2,367.862l3.493-6.37c29.828-54.163,15.262-121.664,6.559-162-6.624-30.668-19.376-55.946-37.9-75.128-46.048-47.7-110.7-45.52-156.308-36.876C679.146,37.471,625.5,7.151,568.766.979,520.825-4.231,469.881,11.572,432.5,43.272a163.305,163.305,0,0,0-28.831,31.645,157.858,157.858,0,0,0-70.7,8.384c-37.432,13.371-71.159,40.481-97.531,78.394-35.444,50.949-50.517,111.812-41.357,166.981,10.546,63.5,52.838,116.947,109.153,139.229A1587.789,1587.789,0,0,1,313.254,704.4c-1.388,42.687,7.983,98.2,60.491,120.25,19.015,7.991,36.939,7.812,47.656,7.724,41.064-.369,83.566,1.26,124.663,2.84,41.78,1.609,84.961,3.261,128.14,2.942a173.785,173.785,0,0,0,21.731,1.411c44.933,0,79.257-19.257,95.333-55.036,7.768-17.295,8.391-33.579,8.766-43.311l8.233-214.471a301.86,301.86,0,0,0-.889-31.107c-.34-5.288-.8-12.386-.811-17.716,62.266-46.209,76.944-66.77,100.634-110.06" transform="translate(323.271 40.094)" fill="#fc5540"/><path d="M799.123,472.437c2.165-3.087,3.768-5.2,4.934-6.648,1.047-.041,2.09-.078,2.926-.1l55.861-1.842c9.124-.3,28.1-.925,47.18-12.539C924,442.8,932.47,431.684,937.016,425.712c10.693-14.036,25.4-36.967,40.969-61.242,12.954-20.2,27.638-43.09,35.356-53.223,4.473-5.868,13.774-18.074,17.757-35.652,7.032-31.079-7.02-55.518-11.637-63.55C972.573,130.485,887.849,87.782,825.989,56.6c-11.876-5.985-48.007-24.2-86.542-4.732-17.8,8.986-26.652,22.695-30.5,28.714-32.911,40.211-79.569,125.3-98.329,172.958-.544,1.377-1.131,2.749-1.71,4.122-5.392,12.768-14.415,34.137-9.2,61.071,6.837,35.3,30.787,54.291,45.1,65.632,1.458,1.156,3.212,2.547,4.68,3.763-.065,3.389-.743,10.047-3.992,21.076-21.29,72.321-41.815,106.788-86.776,182.308q-9.71,16.314-20.847,35.135a64.207,64.207,0,0,0-16.783,15.606c-24.59,33.321-55.982,91.986-71.456,133.551-18.506,49.688.723,79.548,13.8,92.89,15.13,15.457,32.825,19.935,40.369,21.845,7.565,1.918,20.369,5.161,35.582,5.161a91.292,91.292,0,0,0,46.721-12.276c22.24-13,33.529-32.415,40.276-44.015,8.485-14.592,19.62-34.462,30.387-53.675,10.535-18.8,21.429-38.241,29.428-52,12.5-21.5,13.287-41.892,8.391-58.391,11.692-23.423,22.622-46.458,33.222-68.953,23.864-50.624,46.4-98.436,71.3-133.951" transform="translate(723.812 109.02)" fill="#fc5540"/><path d="M71.066,105.02c-14.537,8.36-38.87,22.355-54.909,48.371-22.232,36.066-21.515,80.9,2.126,133.254A581.891,581.891,0,0,0,132.706,454.229c15.426,15.806,34.956,32.926,62.812,40.1,18.519,4.771,35.172,3.6,47.339,2.755.673-.047,1.4-.1,2.134-.148.26.387.491.738.684,1.026a3041.148,3041.148,0,0,1,184.92,319.9c4.857,9.722,12.978,25.993,29.756,39.145a82,82,0,0,0,50.845,17.362,89.758,89.758,0,0,0,44.47-11.991c30.954-17.669,48.072-50.783,43.62-84.356a60.574,60.574,0,0,0-16.6-34.244c-22.027-48.961-52.29-91.139-81.64-132.046-17.443-24.312-33.919-47.274-48.285-71.014-24.566-40.585-44.5-74.478-58.935-110.291-1.3-3.22-2.835-6.775-4.472-10.554-1.861-4.288-4.878-11.247-6.674-16.388,1.5-2.438,3.485-5.4,5.107-7.825,8.048-12.027,19.072-28.5,24.018-50.4,8.724-38.592-6.325-77.446-16.281-103.158l-1.752-4.535c-12.141-31.7-27.562-58.015-42.469-83.464-8.857-15.114-17.225-29.392-24.67-44.389-6.13-12.339-17.544-35.3-41.047-51.081-26.2-17.588-69.093-32.414-124.621-3.144-30.1,15.873-60.348,32.536-89.9,49.53" transform="translate(17.183 102.249)" fill="#fc5540"/><path d="M907.2,367.862l3.493-6.37c29.828-54.163,15.262-121.664,6.559-162-6.624-30.668-19.376-55.946-37.9-75.128-46.048-47.7-110.7-45.52-156.308-36.876C679.146,37.471,625.5,7.151,568.766.979,520.825-4.231,469.881,11.572,432.5,43.272a163.305,163.305,0,0,0-28.831,31.645,157.858,157.858,0,0,0-70.7,8.384c-37.432,13.371-71.159,40.481-97.531,78.394-35.444,50.949-50.517,111.812-41.357,166.981,10.546,63.5,52.838,116.947,109.153,139.229A1587.789,1587.789,0,0,1,313.254,704.4c-1.388,42.687,7.983,98.2,60.491,120.25,19.015,7.991,36.939,7.812,47.656,7.724,41.064-.369,83.566,1.26,124.663,2.84,41.78,1.609,84.961,3.261,128.14,2.942a173.785,173.785,0,0,0,21.731,1.411c44.933,0,79.257-19.257,95.333-55.036,7.768-17.295,8.391-33.579,8.766-43.311l8.233-214.471a301.86,301.86,0,0,0-.889-31.107c-.34-5.288-.8-12.386-.811-17.716,62.266-46.209,76.944-66.77,100.634-110.06" transform="translate(306.088 0)" fill="#fff"/><path d="M799.123,472.437c2.165-3.087,3.768-5.2,4.934-6.648,1.047-.041,2.09-.078,2.926-.1l55.861-1.842c9.124-.3,28.1-.925,47.18-12.539C924,442.8,932.47,431.684,937.016,425.712c10.693-14.036,25.4-36.967,40.969-61.242,12.954-20.2,27.638-43.09,35.356-53.223,4.473-5.868,13.774-18.074,17.757-35.652,7.032-31.079-7.02-55.518-11.637-63.55C972.573,130.485,887.849,87.782,825.989,56.6c-11.876-5.985-48.007-24.2-86.542-4.732-17.8,8.986-26.652,22.695-30.5,28.714-32.911,40.211-79.569,125.3-98.329,172.958-.544,1.377-1.131,2.749-1.71,4.122-5.392,12.768-14.415,34.137-9.2,61.071,6.837,35.3,30.787,54.291,45.1,65.632,1.458,1.156,3.212,2.547,4.68,3.763-.065,3.389-.743,10.047-3.992,21.076-21.29,72.321-41.815,106.788-86.776,182.308q-9.71,16.314-20.847,35.135a64.207,64.207,0,0,0-16.783,15.606c-24.59,33.321-55.982,91.986-71.456,133.551-18.506,49.688.723,79.548,13.8,92.89,15.13,15.457,32.825,19.935,40.369,21.845,7.565,1.918,20.369,5.161,35.582,5.161a91.292,91.292,0,0,0,46.721-12.276c22.24-13,33.529-32.415,40.276-44.015,8.485-14.592,19.62-34.462,30.387-53.675,10.535-18.8,21.429-38.241,29.428-52,12.5-21.5,13.287-41.892,8.391-58.391,11.692-23.423,22.622-46.458,33.222-68.953,23.864-50.624,46.4-98.436,71.3-133.951" transform="translate(706.629 68.926)" fill="#fff"/><path d="M71.066,105.02c-14.537,8.36-38.87,22.355-54.909,48.371-22.232,36.066-21.515,80.9,2.126,133.254A581.891,581.891,0,0,0,132.706,454.229c15.426,15.806,34.956,32.926,62.812,40.1,18.519,4.771,35.172,3.6,47.339,2.755.673-.047,1.4-.1,2.134-.148.26.387.491.738.684,1.026a3041.148,3041.148,0,0,1,184.92,319.9c4.857,9.722,12.978,25.993,29.756,39.145a82,82,0,0,0,50.845,17.362,89.758,89.758,0,0,0,44.47-11.991c30.954-17.669,48.072-50.783,43.62-84.356a60.574,60.574,0,0,0-16.6-34.244c-22.027-48.961-52.29-91.139-81.64-132.046-17.443-24.312-33.919-47.274-48.285-71.014-24.566-40.585-44.5-74.478-58.935-110.291-1.3-3.22-2.835-6.775-4.472-10.554-1.861-4.288-4.878-11.247-6.674-16.388,1.5-2.438,3.485-5.4,5.107-7.825,8.048-12.027,19.072-28.5,24.018-50.4,8.724-38.592-6.325-77.446-16.281-103.158l-1.752-4.535c-12.141-31.7-27.562-58.015-42.469-83.464-8.857-15.114-17.225-29.392-24.67-44.389-6.13-12.339-17.544-35.3-41.047-51.081-26.2-17.588-69.093-32.414-124.621-3.144-30.1,15.873-60.348,32.536-89.9,49.53" transform="translate(0 62.155)" fill="#fff"/><path d="M256.933,286.306c-.1-2.116-.107-4.215-.08-6.31-.115.111-.325,1.692.08,6.31" transform="translate(410.393 447.647)" fill="#606060"/><path d="M436.434,149.709c-.324.366-.7.787-.987,1.11a11.431,11.431,0,0,0,.987-1.11" transform="translate(696.176 239.349)" fill="#606060"/><path d="M258.692,190.691c.013.133.021.231.029.325.078.509.169,1.115.239,1.575Z" transform="translate(413.587 304.869)" fill="#606060"/><path d="M386.827,748.692c-10.075.107-17.892-.86-23.417-4.68a27.263,27.263,0,0,1-6.978-6.713,38.549,38.549,0,0,1-4.379-8.581,70.165,70.165,0,0,1-3.817-18.734,159.288,159.288,0,0,1-.315-18.909c1.164-26.118,2.04-53.049.839-95.58-.719-40.634-3.633-83.927-7.645-123.431-1.528-9.322-2.877-22.277-4.4-35.655-.754-6.689-1.612-13.469-2.454-19.971-.881-6.513-2.162-13.932-6.3-20.055a27.7,27.7,0,0,0-7.339-8.693c-8.534-5.361-18.1-6.385-24.392-9.41l.5-.052c-1.271-.4-2.562-.8-3.856-1.2s-2.518-1.026-3.773-1.536c-1.243-.543-2.477-1.079-3.685-1.606-1.19-.572-2.308-1.234-3.415-1.822-4.485-2.261-7.965-4.922-10.322-6.19l.5.065a116.582,116.582,0,0,1-10.229-8.093l1.884,1.255a104.453,104.453,0,0,1-19.363-20.538A117.755,117.755,0,0,1,231.41,314.85l-.288,1.681a143.607,143.607,0,0,1-10.179-41.822,121.241,121.241,0,0,1,2.937-40.559l.127.494a130.821,130.821,0,0,1,7.352-28.238,156.664,156.664,0,0,1,11.357-23.464,233.292,233.292,0,0,1,14.493-21.936,263.384,263.384,0,0,1,19.117-23.015c-3.753,3.976,2.016-1.286,1.85-.808a152.81,152.81,0,0,1,22.066-17.6c3.313-2.121,6.1-3.909,8.116-5.195,1.972-1.328,3.11-2.209,3-2.633a72.036,72.036,0,0,1,7.505-3.02,18.112,18.112,0,0,1,3.493-.959c1.383-.216,1.284.138,2.279.174-.172-.4,2.739-1.572,7.147-2.817a88.791,88.791,0,0,1,16.063-2.57l-5.2.743a105.846,105.846,0,0,1,16.258-.556,98.489,98.489,0,0,1,16.058,2.318c-1.965-.894-3.935-1.939-5.993-2.739,8.568,1.845,9.387,2.963,10.278,3.482a11.081,11.081,0,0,0,2.123,1.11c1.248.6,3.456,1.208,7.193,2.879l.312-1.2a39.6,39.6,0,0,1,4.507,2.313l1.063.6.686.385c.3.153.517.309.78.465,1,.637,1.97,1.383,2.944,2.063,3.953,2.726,7.549,5.676,11.211,8.612.33-2.614.655-5.179.977-7.711.429-2.677.85-5.322,1.273-7.955.114-.668.275-1.307.413-1.967l.473-1.726.7-2.378c.566-1.551,1.133-3.108,1.708-4.683a90.463,90.463,0,0,1,10.439-18.942c12.955-19.751,33.75-34.808,56.835-43.134a121.368,121.368,0,0,1,36.079-7.173,96.836,96.836,0,0,1,18.389.873l4.608.637a37.937,37.937,0,0,1,4.576.79c3.026.684,6.076,1.247,9.075,2.019,24.046,6.281,46.068,18.823,64.992,34.1a239.148,239.148,0,0,1,26.03,25.055c1.949,2.251,3.961,4.428,5.824,6.723l5.525,6.882c1.794,2.315,3.487,4.7,5.216,7.027.852,1.177,1.741,2.321,2.529,3.534l2.663,3.935,3.56,6.619a5.858,5.858,0,0,0,.517,1.076c.291.392.507,1.351,1.348.855,1.458-.359,3.42-.915,5.666-1.585,1.115-.34,2.307-.707,3.565-1.089l.733-.237.525-.182,1.076-.374,4.579-1.57c6.255-2.193,12.8-4.129,14.644-3.948L715,115.8c3.01-.262,9.283-1.055,4.093.122,4.857-.777,7.339-1.172,9.493-1.515s3.937-.837,7.438-1.273c3.519-.021,7.025-.055,10.5.2,4.8-.177,9.436.151,14.02.33l6.749.72c2.255.159,4.387.748,6.572,1.084l3.253.587,3.145.873,3.142.858,1.57.421,1.5.585,6.016,2.305,5.686,2.955,1.432.733,1.32.907,2.653,1.814,2.672,1.809,2.424,2.149c1.578,1.479,3.353,2.794,4.813,4.418a56.956,56.956,0,0,1,4.3,5.031,81.645,81.645,0,0,1,12.747,25.055,196.31,196.31,0,0,1,4.449,19.618c1.414,7.334,2.929,15.153,4.291,23.321,2.667,16.307,4.945,34.14,4.1,51.749a107.2,107.2,0,0,1-4.008,25.608q-1.04,2.978-2.071,5.93c-.735,1.944-1.718,3.747-2.541,5.621-1.848,3.792-4.106,7.827-6.073,11.6-4.065,7.635-7.944,14.933-12.014,21.437a161.636,161.636,0,0,1-12.5,17.407c-11.863,14.33-27.238,27-43.308,39.262-4.072,3.02-8.137,6.084-12.289,9.077l-6.263,4.48-3.142,2.243-1.573,1.12-1.754,1.346a39.816,39.816,0,0,0-11.1,13.807,58.429,58.429,0,0,0-5.089,16.414c-1.811,11.084-1.51,21.926-1.083,32.425.442,10.491,1.232,20.772.881,30.5-.907,20.478-1.614,40.852-1.791,60.471a54.951,54.951,0,0,0-.145,5.535,23.368,23.368,0,0,0,.187,3.591l-2.947,71.825s-.8,21.77-1.838,50.291c-.234,7.131-.481,14.683-.735,22.422-.122,3.849-.247,7.744-.372,11.658a62.675,62.675,0,0,1-1.172,10.782,25.02,25.02,0,0,1-10.346,15.736c-5.187,3.721-11.723,5.551-17.931,6.435a91.978,91.978,0,0,1-17.544.7c-5.3-.221-9.9-.694-13.553-1.1-7.287-.839-10.868-1.182-8.831.107a38.614,38.614,0,0,0,7.557,2.833,107.116,107.116,0,0,0,17.9,3.669,88.339,88.339,0,0,0,13.555.533,53.946,53.946,0,0,0,16.8-3.087,33.727,33.727,0,0,0,16.9-12.981,46.8,46.8,0,0,0,2.994-5.34,39.6,39.6,0,0,0,2.033-5.969,77.317,77.317,0,0,0,1.92-12.552l.2,1.843c2.289-39.47,3.345-64.085,2.934-91.292,1.959-4.215,1.424-32.29,2.36-41.471l.114.878c-.46-24.041,3.043-49.353,2.7-72.521.109.9.582,1.419.408,6.734.211-8.425.437-18.4.746-26.422.374-8.267.127-14.576.655-15.205-.486-10.278-1.585-21.268-1.767-32.232-.19-10.894.657-22.006,4.779-30.564a28.963,28.963,0,0,1,8.324-10.455c4.16-3.181,8.162-6.237,11.931-9.119,7.547-5.9,14.046-11.24,18.869-15.632l-1.221,1.331c10.839-10.169,14.94-12.076,26.767-23.955a16.9,16.9,0,0,1,1.541-1.162c5.5-6.04,13.571-15,20.107-24.6a228.3,228.3,0,0,0,14.883-24.99l1.013-.4,3.8-7.014,1.9-3.5c.631-1.162,1.235-2.521,1.85-3.773l1.825-3.833,1.447-3.961c.457-1.325,1-2.633,1.385-3.976l1.079-4.044a99.433,99.433,0,0,1-4.085,11.861c-.057-1.208.522-3.254,1.538-6.021.569-1.37,1-2.981,1.551-4.753.5-1.78,1.286-3.7,1.715-5.834a96.581,96.581,0,0,0,2.921-31.507c-.08-11.094-2.212-22.134-4.748-33.022-2.539-10.9-5.5-21.72-7.384-32.825-3.123-10.312,3.412,8.953-.647-6.614.889-.712,2.194,7.212,2.108,3-1.848-7.739-3.4-14.239-5.686-21a74.42,74.42,0,0,0-11.52-22.1l.13-1.13a89.363,89.363,0,0,0-28.971-23.547,76.475,76.475,0,0,0-29.293-8.1c-3.371-.239-6.175-.624-8.558-.722s-4.348-.221-6.042-.356c-3.394-.348-5.665-.346-8-.574a46.336,46.336,0,0,0-8.217-.039c-1.754.13-3.81.268-6.268.6-2.448.377-5.317.863-8.737,1.494l-10.811.748c-11.661,2.188-8.074,2.869-20.894,5.411.307-.418-3.724.476-6.925,1.162-3.183.73-5.535,1.26-1.936-.06l-1.346.322-.616.148-.156.023-.6.094c-.18,0-.395.133-.528.034l-.314-.5-.32-.486-1.575-2.235c-1.079-1.57-2.24-3.09-3.433-4.6-4.675-6.11-9.743-12.149-15.289-18.152A363.129,363.129,0,0,0,618.548,49.28c-3.932-1.926-9.776-5.988-15.77-9.371-2.908-1.822-5.919-3.347-8.529-4.641a40.728,40.728,0,0,0-6.39-2.8c-.375-.434-9.372-4.844-16.065-7.238-3.27-1.385-5.975-2.183-6.424-2.474-.229-.14.1-.13,1.172.088.536.117,1.258.278,2.193.486.912.286,2.03.637,3.378,1.058,1.853.6,5.057,1.837,4.756,1.957l2.82.262a107.812,107.812,0,0,0-15.421-6.016c-2.578-.728-5.076-1.611-7.664-2.1s-5.143-1.008-7.705-1.51c-2.545-.574-5.175-.683-7.768-1.027-2.619-.239-5.176-.691-7.895-.761a165.786,165.786,0,0,0-16.6-.169c6.8-.1,15.824.4,9.774.657a126.607,126.607,0,0,0-21.125.985c1.421-.429,2.864-.761,4.309-1.146a133.243,133.243,0,0,0-30.9,6.546l4.371-.642A180.312,180.312,0,0,0,465.6,27.3a75.887,75.887,0,0,0-17.245,10.036c-3.116,2.456.093.634,2.373-.618,1.146-.621,2.1-1.045,1.879-.821s-1.583,1.136-4.907,3.462a117.015,117.015,0,0,0-27.469,24.5,92.493,92.493,0,0,0-18.519,37.459c.754-1.312.507.774.618.865.031.613-.1,1.536-.093,2.622-.211-.314-.416-.655-.624-1.021.005.1.01.192.016.265a8.584,8.584,0,0,1-1.975-1.188c.161.07-.237-.156-.468-.3s-.476-.3-.694-.434c-.426-.286-.8-.535-1.143-.764-.673-.468-1.19-.873-1.72-1.279a35.463,35.463,0,0,0-4.74-2.739,67.019,67.019,0,0,0-13.456-4.3c.87-.016,1.726.075,2.593.13-2.583-.236-5.195-.1-7.728-.146-12.713-1.351-16.081-1.234-19.873-1.72a42.629,42.629,0,0,0-7.149.016,71.588,71.588,0,0,0-14.595,2.84c5.424-1.219,6.8-.816,5.1-.205-1.689.7-6.365,1.884-12.9,3.579,1.021-.567,2.066-1.073,3.111-1.614-7.235,2.108-9.426,3.428-14.106,5.062,1.993-.99,2.451-1.458,1.117-1.164a46.53,46.53,0,0,0-9.369,3.9c2.035-1.437,4.2-2.664,6.344-3.979a124.377,124.377,0,0,0-17.8,10.951,118.7,118.7,0,0,0-21.843,16.476c-6.65,6.214-11.925,12.092-14.4,14.249A176.17,176.17,0,0,0,244.75,155.5c-5.47,7.734-10.8,16.752-12.058,20.5,1.336-3.158-.317-.684-2.085,1.965-1.806,2.622-3.451,5.574-2.661,2.963-1.627,4.145-5.236,12.11-8.2,20.554-3.046,8.4-5.748,17.136-7.337,22.157l.38-1.957a147.182,147.182,0,0,0-5.2,51.861,166.123,166.123,0,0,0,3.7,24,184.962,184.962,0,0,0,7.742,24.114c.065-.468.475.294,1.18,1.559.722,1.258,1.663,3.054,2.57,4.758,1.731,3.459,3.792,6.294,3.111,4.064,9.111,15.572,19.67,28.376,29.894,37.485,10.177,9.161,20.036,14.322,26.65,15.491,15.049,6.471,18.321,7.256,25.088,10.148-1.063-.353-2.167-.678-3.308-.985,6.668,2.048,10.73,4.569,12.96,7.646,2.3,3.118,3.311,6.988,4.031,10.847.7,3.87,1.117,8.015,1.661,12.29.512,4.3,1.112,8.9,1.681,14.329,1.57,10.8,3.449,12.326,4.977,31.84-1.237-6.237-.379,1.71.3,9-.535-4.649-.907-6.063-.463,3.537.335,1.328.626,3.4.892,5.34-.044.086-.055.47-.14.278,1.237,12.149,1.266,10.018.889,4.358.125.278.213-.211.25-1.973.3,12.69,2.656,35.239,1.606,36.843,2.487,36.619,4.34,62.835,5.062,93.41-.558,3.441-1.1-3.7-1.461-12.568q.277,10.837.374,21.676c-.84-.184-.483-12.451-.777-19.124-.483,12.908-.182,26.2.044,40.057.083,6.928.145,14,.036,21.227-.109,7.25-.481,14.522-.835,22.342.19,2.141.509,4.3.764,6.432l-.018,1.861c.341-.107,1.13,6.835,1.978,11.411-.081,2.245-.465,2.235-.554,3.6-.013,1.351-.088,4.143,2.43,11.858a48.235,48.235,0,0,0,1.76,5.042,49.913,49.913,0,0,0,2.866,5.579,38.321,38.321,0,0,0,9.748,10.746l3.238,2.136c1.117.645,2.318,1.143,3.477,1.708a31.423,31.423,0,0,0,7.227,2.393,63.337,63.337,0,0,0,13.472,1.2c-4.358-.177-5.886-.543-5.777-.657a19.969,19.969,0,0,1,3.654-.2c7.791.205,11.993.723,17.8.452l.723.98c-2.955-.975,19.568-.977,22.347-1.32,4.26.759-11.635.546-13.508,1.084,15.023.036,18.781.1,22.536.159l22.536.392c16.063-.3-2.892-1.021,4.805-1.663,14.173.205,28.028-.016,44.278,1.185l-5.12-1.058c26.661.312,42.592,1.06,60.51,2.568,49.7-.026,77.147-1.531,90.336-2.869,13.2-1.307,12.23-2.331,5.037-3.02-7.16-.722-20.481-1.24-32.02-1.723l-21.3-.878c-38.919-1.843-68.5-3.069-100.019-3.721-31.51-.611-65-1.18-111.69-.5" transform="translate(331.193 23.821)" fill="#606060"/><path d="M278.058,270.016l.941.387c-.011-.166-.248-.317-.941-.387" transform="translate(444.549 431.691)" fill="#606060"/><path d="M370.829,272.509c.076-.028.161-.042.229-.076-.162.026-.213.05-.229.076" transform="translate(592.867 435.557)" fill="#606060"/><path d="M292.361,275.1h-.052l-.247.083Z" transform="translate(466.938 439.822)" fill="#606060"/><path d="M294.111,283.921c12.739.782,16.076,2.565,29.309,2.232,6.3.309,13.033.1,19.2.062,2.957-1.239,8.09.2,11.58-.814l1.32.783a6.306,6.306,0,0,1,3.8-.128l-.081.216c1.8-.52,3.8-.128,4.688-.387l-.08.218,2.167-.039-.38.3a32.374,32.374,0,0,1,9.138-.119l-.208-.912c6,1.175,8.259-.641,13.672.7l-.081.218c6.944-2.2,10.835,1.918,17.989-.156-.894.257.366.475.288.692,3.272-.169,6.765-.211,6.864-1.986,2.381.088,1.923.608,2.217,1.3,0-.78,2.084-1.047,3.941-1.044l-.862.278,5.332-.122-1.008-1.5c2.814.5.67,1.811,3.384,1.528v-1.219c3.9.346,6.141,2.251,9.9,3.251,15.7.943,32.672-1.707,47.235.832l.621.933c.244,1.343,4.089-1.872,4.611-.619l1.718-.566c.473.252,1.474.535.618.813a4.943,4.943,0,0,0,2.757-.5l1.666.876c6.188.813,11.507-.65,18.028-.148,7.8,1.907,22.6.746,31.135.068,12.009-1.676,25.775,4.02,38.08,2.066a1.705,1.705,0,0,0,1.432-.351l11.2.491s3.394.122,7.848.117c2.224,0,4.714-.036,7.175-.135l1.837-.086q1.029-.067,2.032-.13a11.423,11.423,0,0,0,5.65-1.864,7.232,7.232,0,0,0,2.524-3.139,5.775,5.775,0,0,0,.415-3.058,5.566,5.566,0,0,0-.9-2.3,5.754,5.754,0,0,0-2.451-2.032,5.836,5.836,0,0,0-2.732-.509A4.263,4.263,0,0,0,613.6,279.6a3.811,3.811,0,0,0-.569,1.206,2.865,2.865,0,0,0-.01.767c.042.486.237.45.4.52a.98.98,0,0,0,.551-.018c.249-.184.445-.421.885-.719a1.511,1.511,0,0,1,1.516-.185,2.135,2.135,0,0,1,.959,1.013c.2.4.322,1,.055,1.2-.024.052-.185.044-.143.044-.081.013-.151-.1-.263-.034a1.134,1.134,0,0,1-.567.026,11.427,11.427,0,0,1-1.564-.424c-1.221-.476-3.74-1.3-6.213-2.027l.286-.28c-6.115-.876-9.971-1.133-14.239.218-.621-1.814-5.034-.32-6.452-.941l.14-.143c-3.779,1.281-7.674-1.356-11.315-.216a1.107,1.107,0,0,1,1.065-.637c-2.635.156-6.236.458-6.405-.592-6.281.106-15.026-.614-19.093.946l.283-.281c-2.321,1.063-2.97.086-5.546.59-.135-.14-.318-.216-.286-.273-2.526,1.045-7.29-.023-9.32.4l-.112-.7-4.974.026,1.853.2c-.7,1.892-3.727-1.3-7.365-.159-3.368-.333-6.949,3.782-10.426,2.754-1.694.848,1.51-1.413-1.006-.792-.055-1,1.182-.593.561-1.406-2.466.408-3.994-1.125-7.037-.532l-.1-.78c-3.984,1.31-7.419-1.222-10.081.059-4.088.53-2.666-2.375-6.944-.971l-1.619-1.092c-1.809-.221-1.335,1.25-3.332.686.141-.657-2.526-.595-1.331-1.19-4.524-1.156-9.277,1.219-15.224-.688-1.335,1.248-4.331.4-5.327,1.341-.146-.564-6.045-.252-2.625-1.377.294-.091.808-.06.767.158l.426-.751c-3.378-1.531-6.232.627-9.608.312,1,.281,2.331.249,1.427.748l-3.14-.187.671-.626-4.67-.5.624.811c-2.281-.47-3.048-1.842-5.662-.785-1.188.6,2.141,1.128-.283,1.312a108.8,108.8,0,0,0-11.518-1.9c.343.9-.71.842-1.8,1l-.1-.78c-4.179.967-1.476-1.748-5.616-1l.377-.533L423.425,274c-3.755,1.44-1.96-1.663-6.144.325,1.634-.088.722,1.734-1.279,1.341l.53-.735c-1.117.127-1.5.431-2.232.257.673-.387.379-1.081-1.258-1l1.12-.907-3.126,1.294c-2.365-.868-6.175.039-7.126-1.042,0,0-5.115-.658-6.323.468,1.05-.689-1.772-1.04-.943-1.863-1.352.777-5.3,1.338-6.843.429l.3-.089c-5.79-1.042-9.974.943-15.161-.273.213.909-2.529.343-1.879,1.513-5.426.992-9.777-2.6-11.822.9-2.461.125-2.887-.912-4.153-1.13l.59-.172a84.04,84.04,0,0,1-9.358-.01c-1.715.3-2.027,1.95-5.073,1.466,1.006-.629-.247-.54-1.39-.572.733-.086.967-.319-.522-.8a2.342,2.342,0,0,1-.855.41c-.013-.055-.07-.1-.039-.164-1.913.179-1.588.392-.7.507-.047.1.024.231.294.421-1.957-.9-5.522-.091-5.733-1.227-5.743.107-9.878,1.162-14.662,1.471-.523-.595.608-1.078,2-1.268l-3.395.122c.052-.835,1.96-.429,3.007-.567-4-1.46-8.352,1.123-13.049-.241l-1,.633-.278-.116c.005.348-1.068.8-1.772.889-.65-.746.091-1.676-2.253-1.695-1.833-.75-5.268.211-7.7.539,1.3.156.871.551.3.79-1.172-.005-1.827-.751-2.739-.463l-.086-.987c.434.938-3.085.917-3.529,1.307-.647-.746,1.832-.577,2.141-1.117l-7.045-.055c-2.526.673.429.943-.793,1.769-2.217.135-4.392.762-6.915.1l.782.891c-4.174.566-6.658.4-9.433-.559-2.118.427-3.981.837-5.567,1.237l.062.652c20.445-10.6-.779-8.339-.779-8.339-.353.021-.7.039-1,.057l1.492,16.1c11.515,1.939,17.918-.3,32.025-.585" transform="translate(416.628 428.706)" fill="#606060"/><path d="M276.211,245.913l.252-.793c-.164.036-.278.244-.252.793" transform="translate(441.59 391.888)" fill="#606060"/><path d="M268.767,172.979c-.033-.057-.054-.122-.09-.171.036.122.064.161.09.171" transform="translate(429.551 276.279)" fill="#606060"/><path d="M279.333,233.713l.005.039c.042.065.078.12.117.179Z" transform="translate(446.587 373.651)" fill="#606060"/><path d="M302.53,406.132c-1.04-9.935.3-12.794-1.85-22.927-.522-4.9-1.614-10.065-2.458-14.813-1.627-2.095-.829-6.276-2.271-8.818l.608-1.138a3.925,3.925,0,0,1-.6-2.913l.223.034c-.738-1.312-.6-2.916-.969-3.565l.224.029-.309-1.666.346.249a19.413,19.413,0,0,1-1.224-7.045l-.875.291c.447-4.808-1.619-6.3-.931-10.676l.226.034c-3.012-5.078.665-8.644-2.206-13.907.356.655.431-.345.654-.314-.538-2.513-.972-5.213-2.744-5.063-.181-1.858.387-1.57,1.045-1.884-.774.094-1.26-1.484-1.458-2.926l.369.634-.688-4.121-1.38.967c.2-2.245,1.726-.743,1.157-2.815l-1.209.151c-.076-3.069,1.58-5.041,2.173-8.072-.691-12.284-4.972-25.18-3.789-36.775l.868-.577c1.31-.328-2.219-2.986-1.024-3.522l-.712-1.278c.211-.392.4-1.2.754-.562a3.2,3.2,0,0,0-.735-2.1l.725-1.383c.273-4.891-1.682-8.883-1.7-14.01,1.247-6.245-1.1-17.659-2.388-24.257-2.6-9.236,2.157-20.4-.6-29.847.174-.322-.288-1.107-.442-1.094l-.213-8.771s-.319-10.624-1.814-17.17-4.246-9.046-9.166,7.375l-.3-.205c-.533,4.847-.561,7.892,1.066,11.151-1.77.6,0,3.965-.53,5.12l-.153-.1c1.518,2.874-.87,6.112.5,8.885-.148-.1-.647-.138-.706-.788.332,2.053.889,4.855-.148,5.062.546,4.914.418,11.83,2.279,14.888l-.3-.2c1.237,1.734.312,2.318,1.008,4.3-.13.117-.193.265-.25.244,1.232,1.892.527,5.707,1.1,7.261l-.686.148.4,3.89.057-1.468c1.936.379-1.016,3.03.424,5.775-.055,2.666,4.334,5.093,3.6,7.9.982,1.245-1.531-1.05-.707.858-.99.135-.686-.868-1.445-.307.605,1.887-.792,3.225.044,5.551l-.767.153c1.643,2.986-.563,5.915.941,7.872.889,3.139-2.126,2.318-.353,5.522l-.946,1.375c-.057,1.437,1.362.917.98,2.534-.667-.042-.371,2.035-1.068,1.164-.732,3.656,2.084,7.118.746,11.967,1.37.907.811,3.339,1.84,4.015-.548.177.32,4.748-1.122,2.2-.12-.219-.135-.624.086-.616l-.787-.249c-1.206,2.812,1.242,4.8,1.266,7.466.177-.808.01-1.848.6-1.2l.13,2.471-.689-.452-.026,3.7.743-.579c-.236,1.835-1.523,2.594-.208,4.511.712.855.9-1.8,1.331.068a63.232,63.232,0,0,0-.689,9.21c.863-.376.912.45,1.182,1.279l-.764.177c1.406,3.139-1.578,1.367-.392,4.5l-.567-.229,1.7.683c1.829,2.749-1.44,1.739.98,4.751-.262-1.263,1.64-.783,1.466.826l-.785-.32c.244.855.59,1.11.5,1.7-.46-.473-1.115-.156-.845,1.107l-1.029-.756,1.64,2.269c-.593,1.954.735,4.8-.228,5.684,0,0-.07,4.072,1.179,4.865-.8-.728-.829,1.518-1.738.982.923.948,1.923,3.945,1.216,5.27l-.125-.221c-.34,4.649,2.126,7.63,1.541,11.835.873-.294.642,1.921,1.723,1.25,1.616,4.078-1.365,7.973,2.352,9.054.432,1.889-.54,2.372-.6,3.386l-.244-.431a51.662,51.662,0,0,1,1.167,7.269c.515,1.286,2.175,1.281,2.1,3.714-.756-.683-.5.273-.382,1.164-.179-.556-.442-.7-.722.528a1.718,1.718,0,0,1,.517.6c-.049.018-.083.07-.156.055.432,1.455.6,1.169.6.468.1.021.223-.055.377-.291-.634,1.655.637,4.293-.458,4.631.874,4.439,2.433,7.479,3.4,11.131-.515.5-1.149-.3-1.526-1.346l.587,2.606c-.832.1-.694-1.448-.975-2.235-.891,3.329,2.261,6.284,1.562,10.141l.765.668-.078.236c.346-.062.933.694,1.122,1.224-.644.626-1.665.205-1.361,2.022-.494,1.543.943,4.043,1.622,5.87-.034-1.034.416-.767.735-.366.161.907-.478,1.536-.063,2.193l-.959.234c.863-.5,1.349,2.23,1.8,2.505-.642.626-.834-1.318-1.411-1.463.645,3.636.323,1.817.967,5.452,1.027,1.838.863-.494,1.856.307.452,1.689,1.383,3.262,1.1,5.322l.767-.756c1.17,3.121,1.388,5.06.857,7.37,10.842,22.851,10.39,3.516,10.39,3.516.385-9.709-2.872-14.168-5.231-25.3" transform="translate(427.706 239.01)" fill="#606060"/><path d="M317.922,247.082l.354-.624c-.167.013-.307.172-.354.624" transform="translate(508.282 394.028)" fill="#606060"/><path d="M315.3,185.991a1.009,1.009,0,0,0-.089-.146c.034.1.063.138.089.146" transform="translate(503.954 297.122)" fill="#606060"/><path d="M322.337,237.2v.034l.1.159Z" transform="translate(515.34 379.228)" fill="#606060"/><path d="M334.992,382.771c.455-8.5,2.105-10.811,1.164-19.574.005-4.19-.564-8.62-.943-12.669-1.4-1.866-.254-5.32-1.463-7.539l.707-.915a2.813,2.813,0,0,1-.343-2.477l.218.039c-.619-1.141-.341-2.474-.65-3.043l.222.039-.162-1.414.322.229a14.093,14.093,0,0,1-.639-5.972l-.9.195c.832-4-1.11-5.364-.073-8.989l.221.039c-2.588-4.407,1.3-7.209-1.174-11.759.31.566.455-.27.676-.234-.356-2.131-.6-4.413-2.373-4.366-.047-1.562.5-1.3,1.174-1.531-.777.044-1.162-1.3-1.265-2.516l.324.548-.421-3.482-1.44.754c.34-1.871,1.772-.551,1.335-2.31l-1.216.078c.123-2.573,1.9-4.158,2.685-6.681.052-10.333-3.555-21.266-1.85-30.956l.9-.465c1.328-.244-2.1-2.555-.878-2.975l-.66-1.089c.223-.325.449-1,.774-.455,0-1.034-.213-1.05-.652-1.775l.78-1.143c.46-4.1-1.3-7.49-1.169-11.785,1.46-5.224-.536-14.836-1.7-20.377-2.352-7.752,2.552-17.115-.1-25.044.176-.27-.278-.928-.432-.915l-.146-7.357s-1.107-35.66-10.946-8.085l-.3-.166c-.525,4.054-.566,6.593,1.026,9.3-1.775.52-.036,3.314-.574,4.28l-.151-.083c1.494,2.394-.918,5.106.426,7.417-.146-.086-.641-.115-.7-.655.306,1.712.811,4.051-.226,4.225.46,4.1.239,9.873,2.025,12.433l-.3-.166c1.193,1.453.255,1.939.9,3.591-.133.1-.2.221-.257.205,1.187,1.585.392,4.769.925,6.071l-.689.117.309,3.254.094-1.224c1.925.335-1.084,2.518.259,4.828-.14,2.222,4.168,4.306,3.337,6.648.943,1.055-1.494-.9-.733.707-.993.1-.658-.736-1.432-.278.543,1.588-.9,2.685-.135,4.639l-.772.114c1.533,2.523-.8,4.93.632,6.593.761,2.64-2.22,1.895-.578,4.605l-1,1.128c-.117,1.2,1.323.792.876,2.133-.665-.049-.452,1.692-1.112.948-.9,3.03,1.741,5.993.172,10,1.325.8.649,2.809,1.645,3.4-.556.13.089,3.968-1.226,1.8-.109-.187-.107-.525.114-.512l-.774-.231c-1.336,2.308.977,4.036.855,6.266.223-.668.117-1.541.667-.98l-.01,2.066-.663-.4-.234,3.087.775-.457c-.341,1.52-1.666,2.11-.463,3.753.663.738,1.006-1.471,1.328.1a48.168,48.168,0,0,0-1.25,7.653c.884-.28.881.413,1.094,1.115l-.772.117c1.2,2.671-1.661,1.073-.681,3.737l-.551-.213,1.653.639c1.648,2.367-1.549,1.385.673,4-.182-1.066,1.686-.582,1.409.751l-.764-.3c.192.722.517.954.385,1.445-.426-.416-1.1-.179-.925.886l-.969-.675,1.471,1.965c-.733,1.6.387,4.036-.639,4.727,0,0-.364,3.389.829,4.108-.749-.644-.938,1.224-1.806.733.853.834,1.635,3.381.816,4.452l-.106-.192c-.712,3.854,1.507,6.466.587,9.938.893-.2.486,1.632,1.617,1.133,1.3,3.49-2.048,6.562,1.567,7.679.265,1.6-.746,1.947-.891,2.788l-.205-.377a36.487,36.487,0,0,1,.522,6.123c.395,1.1,2.056,1.2,1.744,3.222-.684-.618-.525.195-.494.944-.125-.476-.372-.613-.772.387a1.435,1.435,0,0,1,.458.535c-.052.01-.091.052-.161.034.286,1.237.478,1.013.546.429.1.026.226-.029.4-.216-.793,1.331.205,3.61-.917,3.81.411,3.737,1.666,6.372,2.191,9.48-.571.367-1.1-.346-1.356-1.245l.273,2.2c-.837,0-.515-1.255-.7-1.931-1.279,2.661,1.494,5.387.294,8.49l.671.629-.107.185c.348-.016.834.67.951,1.128-.722.442-1.676-.013-1.624,1.5-.689,1.206.366,3.412.748,4.99.125-.847.528-.572.782-.205.024.764-.7,1.2-.4,1.785l-.982.062c.928-.288.972,2,1.37,2.287-.735.419-.611-1.19-1.157-1.387.032,3.043.016,1.523.047,4.563.7,1.645.935-.27,1.777.533.148,1.442.782,2.877.124,4.506l.895-.486c.554,2.742.364,4.374-.637,6.138.112.39.221.769.335,1.05l2.43-.608c-15.692-12.214-9.608,2.191-9.608,2.191a26.187,26.187,0,0,0,1.237,3.059l11.211,23.155L336.18,401.7c1.053-6.221-.7-10.644-1.188-18.929" transform="translate(502.466 265.932)" fill="#606060"/><path d="M369.586,259.891l.429-.772c-.166,0-.327.189-.429.772" transform="translate(590.88 414.27)" fill="#606060"/><path d="M369.585,181.152a1.782,1.782,0,0,0-.1-.185c.039.133.068.174.1.185" transform="translate(590.725 289.323)" fill="#606060"/><path d="M375.109,247.658l0,.044.08.213Z" transform="translate(599.705 395.946)" fill="#606060"/><path d="M385.333,435.384c1.37-10.8,3.288-13.553,3.407-24.865.5-5.366.455-11.125.569-16.39-1.19-2.565.333-6.9-.621-9.9l.8-1.11a4.7,4.7,0,0,1-.073-3.24l.213.072c-.5-1.544-.1-3.243-.353-4.01l.218.073-.023-1.85.3.33a23.7,23.7,0,0,1-.055-7.8l-.912.169c1.164-5.112-.66-7.048.673-11.656l.218.068c-2.222-5.917,1.807-9.246-.338-15.338.268.759.471-.317.689-.252-.211-2.791-.348-5.769-2.118-5.827.037-2.027.567-1.645,1.256-1.9-.78.005-1.092-1.76-1.131-3.342l.3.73-.233-4.538-1.476.886c.436-2.4,1.806-.608,1.439-2.911l-1.216.029c.224-3.321,2.061-5.278,2.945-8.511.424-13.43-2.981-27.731-1.352-40.255l.895-.585c1.327-.294-2.108-3.358-.892-3.883l-.662-1.424c.226-.419.434-1.286.772-.58a3.711,3.711,0,0,0-.687-2.31l.762-1.476c.377-5.322-1.409-9.735-1.442-15.307,1.328-6.783-1.094-19.262-2.591-26.409-2.827-9.93,1.606-22.321-2.4-32.731a1.388,1.388,0,0,0-.592-1.169c-.468-3.241-1.079-6.492-1.775-9.738,0,0-.655-2.952-1.918-6.741a50.034,50.034,0,0,0-5.481-11.531c-2.16-3.189-4.327-4.945-5.32-3.669-1.125,1.291-.753,5.5-.546,14.264l-.351-.109c.974,4.875,1.564,7.864,3.815,10.886-1.629.93.71,4.057.338,5.346l-.166-.081c1.951,2.773-.047,6.411,1.578,9.176-.159-.093-.655-.091-.775-.767.522,2.113,1.282,5.034.252,5.32.889,5.127,1.047,12.518,2.973,15.777l-.307-.208c1.281,1.837.371,2.484,1.12,4.6-.127.13-.185.288-.244.268,1.284,2.017.686,6.128,1.265,7.794l-.686.164.46,4.181.039-1.577c1.941.405-.969,3.256.481,6.208-.024,2.859,4.327,5.525,3.581,8.552.975,1.359-1.526-1.159-.712.912-.99.13-.684-.948-1.442-.356.595,2.045-.814,3.456.013,5.972l-.77.148c1.606,3.256-.7,6.341.761,8.49.806,3.41-2.188,2.412-.5,5.92l-.987,1.437c-.112,1.538,1.328,1.042.884,2.762-.665-.078-.445,2.165-1.11,1.2-.9,3.878,1.8,7.747.169,12.864,1.312,1.06.615,3.63,1.6,4.426-.556.151.047,5.109-1.245,2.277-.107-.244-.1-.678.12-.653l-.772-.325c-1.362,2.916.941,5.221.751,8.085.239-.852.154-1.977.691-1.234l-.062,2.656-.652-.54-.312,3.958.785-.556c-.376,1.941-1.718,2.635-.556,4.8.645.98,1.042-1.845,1.323.195a83.681,83.681,0,0,0-1.533,9.774c.894-.312.862.577,1.05,1.492l-.777.106c1.092,3.5-1.694,1.286-.833,4.758l-.541-.306,1.617.92c1.52,3.144-1.622,1.684.458,5.179-.125-1.377,1.715-.639,1.366,1.058l-.746-.434c.151.941.463,1.255.3,1.882-.4-.564-1.089-.3-.969,1.076l-.933-.933,1.361,2.622c-.8,2.006.135,5.213-.933,6.026,0,0-.592,4.319.546,5.338-.7-.886-1.019,1.5-1.851.8.79,1.136,1.409,4.467.491,5.775l-.092-.255c-1.026,4.878.975,8.425-.233,12.791.909-.169.327,2.139,1.5,1.606.953,4.605-2.671,8.209.819,10.008.112,2.084-.933,2.422-1.172,3.485l-.162-.5a60.088,60.088,0,0,1-.161,7.905c.276,1.458,1.915,1.775,1.383,4.335-.614-.871-.543.192-.6,1.156-.07-.621-.294-.826-.81.416a1.837,1.837,0,0,1,.387.738c-.051.008-.1.055-.163.026.13,1.624.353,1.354.488.613.1.042.231-.013.429-.234-.951,1.622-.234,4.667-1.372,4.8-.034,4.857.914,8.4,1.04,12.464-.614.411-1.058-.569-1.2-1.754l0,2.874c-.831-.086-.358-1.676-.463-2.567-1.6,3.3.84,7.113-.7,11.008l.587.878-.13.229c.351.016.749.949.811,1.551-.771.5-1.668-.177-1.79,1.8-.831,1.5-.023,4.459.195,6.538.216-1.089.588-.7.8-.2-.06.99-.832,1.494-.585,2.284l-.987.008a.375.375,0,0,1,.475.224l8.387-.284c-.551-.478-.923-2.235-1.245-2.474.655-.611.79,1.37,1.38,1.518a53.154,53.154,0,0,1-.668-5.528c-.826-1.964-.909.408-1.813-.517-.268-1.783-.957-3.584-.258-5.645l-.9.624c-.517-3.483-.143-5.608,1.081-7.75-.684-6.611-.762-10.642-1.349-12.773-.559-2.134-1.533-2.313-2.583-1.7a11.7,11.7,0,0,0-3.064,3.924,26.987,26.987,0,0,0-1.328,2.918,30.489,30.489,0,0,0-2.5,14,89.729,89.729,0,0,0,2.352,15.127l13.5-.457c.011-.5.021-1.079.031-1.676" transform="translate(585.502 249.517)" fill="#606060"/><path d="M560.961,196.085l3.389-4.114c-.174-.028-1.115.969-3.389,4.114" transform="translate(896.843 306.915)" fill="#606060"/><path d="M516.772,292.877a9.21,9.21,0,0,1,1.777.624,6.349,6.349,0,0,0-1.777-.624" transform="translate(826.195 468.24)" fill="#606060"/><path d="M629.685,163.668c-.062.1-.109.166-.151.234-.218.387-.471.842-.665,1.19Z" transform="translate(1005.412 261.666)" fill="#606060"/><path d="M695.2,467.374c8.4-15.2,15.739-27.287,22.654-37.742,7.005-10.325,13.26-19.639,20.168-27.393a65.794,65.794,0,0,1,11.2-10.231,35.863,35.863,0,0,1,13.768-5.9c5.4-1.133,11.855-1.323,19.532-1.578l24.875-.974c8.651-.281,17.451-.567,26.308-.852a108.556,108.556,0,0,0,14.394-1.06,34.7,34.7,0,0,0,8.311-2.492A29.733,29.733,0,0,0,864,374.172c4.285-3.9,6.993-7.814,9.659-11.4,2.739-3.706,5.26-7.4,7.77-11.079,4.986-7.36,9.681-14.67,14.293-21.814,7.7-14.223,24-37.482,33.438-53.924l4.649-5.722A143.544,143.544,0,0,1,945.2,253.072l-.056.46c2.552-4.241,5.376-7.82,8.417-12.183a36.793,36.793,0,0,0,3.714-6.759,22.882,22.882,0,0,0,1.593-6.193l.119.6a29.187,29.187,0,0,0-1.964-15.229c.391.712.745,1.481,1.106,2.245a60.019,60.019,0,0,0-6.567-12.893c-2.394-3.727-4.781-7.445-7.147-11.12-2.541-3.547-5.054-7.053-7.515-10.483-2.554-3.355-5.19-6.526-7.646-9.675l.146,1.606c-2.521-3.438-5.2-6.284-7.623-9.018-2.44-2.718-4.693-5.263-7.048-7.438-2.315-2.214-4.5-4.306-6.614-6.325-2.126-2-4.335-3.745-6.437-5.569-2.139-1.783-4.189-3.636-6.393-5.369s-4.433-3.514-6.773-5.366c-2.3-1.91-4.764-3.8-7.407-5.793s-5.368-4.239-8.41-6.513l.468.055c-16.354-10.078-29.155-17.97-42.152-25.977a360.18,360.18,0,0,0-44.317-23.3c4.471,1.944-1.65-1.357-1.2-1.375-4.085-1.98-8.046-3.968-12.142-5.891a70.645,70.645,0,0,0-12.13-4.53,31.366,31.366,0,0,0-9.99-1.12c-2.563.187-4.043.722-4.075,1.182a27.758,27.758,0,0,0-8.361,2.188,22.278,22.278,0,0,0-3.87,2.087c-1.418.943-1.452.577-2.487,1.167.25.177-2.009,3.347-3.872,6.83-.5.865-1.019,1.728-1.578,2.526-.294.447-.525.728-.907,1.24q-.561.741-1.144,1.5c-1.559,2.019-3.2,4.137-4.79,6.2.874-1.333,1.822-2.63,2.731-3.953-6.136,7.859-11.708,15.99-17.074,24.233,1.476-1.336,2.921-2.687,4.442-3.984-8.976,12.762-3.787,2.256-11.571,15.034l1.131.491c-11.663,18.116-19.584,28.124-30.522,45.964-10.6,18.953-20.6,38.688-29.728,59.06-2.222,5.132-4.47,10.249-6.515,15.507l-6.187,15.507c-2.017,5.418-3.909,11.5-3.774,18.241a32.19,32.19,0,0,0,.525,5.021c.346,1.609.808,3.131,1.229,4.693.5,1.525,1.185,2.989,1.785,4.475.694,1.434,1.523,2.788,2.29,4.176a60.524,60.524,0,0,0,12,13.4c4.35,3.758,8.781,7.045,12.936,10.377a87.4,87.4,0,0,1,11.292,10.387,42.135,42.135,0,0,1,7.511,12.206c3.654,8.924,4.241,19.041,3.514,28.846a137.308,137.308,0,0,1-5.91,28.911l-1.822,3.064c-1.741,1.063-4.48,21.637-6.764,24.1l-2.339,8.992c-1.036,2.4-3.191,7.453-1.895,3.025a138.351,138.351,0,0,0-4.537,14.236l-4.125,8.243c-12.955,31.073-24.719,57.277-42.653,88.2-8.306,13.285-18.989,31.04-30.359,50.231-5.683,9.6-11.51,19.563-17.255,29.517-7.007,12.23-13.985,24.4-20.655,36.042q5.083,1.224,10.07,2.422,2.456.616,4.886,1.222l4.052,1.078c3.581.987,7.381,2.193,11.086,3.126,3.738.954,7.106,1.764,10.741,2.534l9.692,1.959q2.973.624,5.974,1.253,2.308.55,4.636,1.1a8.044,8.044,0,0,1,1.354.455,1.988,1.988,0,0,1,.723,1.193,5.081,5.081,0,0,1-.353,2.846,22.2,22.2,0,0,1-.972,2.1c-.413.8-.93,1.671-1.469,2.638q-1.586,2.795-3.181,5.608-3.227,5.605-6.491,11.281c-8.753,15.094-17.876,30.387-27.019,45.73-9.145,15.322-18.287,30.775-27.129,45.972-4.391,7.388-8.916,14.116-14.522,17.9-5.483,3.823-12.622,4.722-20.267,4.051-.977-.213-2.765-.411-4.337-.6a16.607,16.607,0,0,0-2.906-.244c-4.654-1.117-10.2-2.263-13.549-3.81a8.943,8.943,0,0,1-3.719-2.931,10.351,10.351,0,0,1-1.692-4.6c-.532-3.719.187-8.3,1.482-12.778.649-2.266,1.41-4.491,2.31-6.811l2.765-7.032,1.411-3.415c.884-2.212,2.271-5.385,3.976-9.324,3.464-7.864,8.482-18.708,14.47-30.637s12.88-24.964,19.928-37.238c3.529-6.131,7.021-12.123,10.483-17.661,1.692-2.8,3.418-5.447,5.052-8.009.808-1.292,1.632-2.524,2.443-3.722q1.1-1.668,2.154-3.254a2.538,2.538,0,0,1,.909-.928,6.581,6.581,0,0,1,1.378-.626,26.952,26.952,0,0,1,4.042-1.084,48.326,48.326,0,0,1,7.31-.858,24.64,24.64,0,0,1,4.593.171c.3.018.335.06.493.062s.278.013.237-.047a.149.149,0,0,1,.02-.042,1.9,1.9,0,0,1,.206-.177,2.4,2.4,0,0,1,.426-.26l.026-.013.008,0c-.239.146.541-.33-.533.327l.009.005.023.018.046.036.092.065c.057.034.112.065.161.1.2.1.325.073.383-.075a.832.832,0,0,0,.028-.322c-.01-.1-.023-.216-.039-.356.226-.353-.86-1.351-2.8-1.977a28.219,28.219,0,0,0-8.365-1.221,36.855,36.855,0,0,0-6.024.359,19.107,19.107,0,0,0-3.524.8,7.056,7.056,0,0,0-3.511,2.266c-8.709,10.268-20.125,25.665-33.909,48.038l.494-1.479c-8.548,14.662-14.927,26.944-20.278,38.269a266.507,266.507,0,0,0-13.142,33c-1.424,1.364-4.423,7.947-5.79,16.156a34.356,34.356,0,0,0,.161,12.893,23.177,23.177,0,0,0,2.136,5.8c.51.819.97,1.606,1.453,2.287l1.419,1.785-.787-.678a21.961,21.961,0,0,0,8.516,5.424,78.066,78.066,0,0,0,8.171,2.362,129.993,129.993,0,0,0,16.156,3.378,42.8,42.8,0,0,0,17.594-1.112,31.936,31.936,0,0,0,14.834-9.532c-.265.353-.374.715-.928,1.424a17.743,17.743,0,0,1-3.7,3.41c7.066-5.148,12.147-13.171,15.749-19.171,3.622-6.045,6.156-10.445,6.925-10.665,16.741-30.135,40.86-71.765,50.3-91.825l-.5,1.463a138.9,138.9,0,0,1,6.725-13.054c.588-1.021,1.167-2.089,1.716-3.29a21.931,21.931,0,0,0,1.642-5.117,12.4,12.4,0,0,0-.275-5.938,9.423,9.423,0,0,0-1.528-2.947,3.83,3.83,0,0,0-1.323-1.12,11.533,11.533,0,0,0-1.593-.879,22.012,22.012,0,0,0-2.017-1.146c-.645-.172-1.286-.377-1.97-.53-.608-.14-1.235-.286-1.871-.432l-2.98-.624c-2.038-.429-4.213-.889-6.477-1.364-4.465-.988-9.436-1.928-13.887-3.111-4.664-1.193-9.049-2.464-13.069-3.766l-2.989-.915c-.818-.231-1.608-.455-2.356-.668q-1.354-.347-2.5-.554a4.458,4.458,0,0,1,.332-.624l-1.993-.475c.738-1.429,1.619-2.88,2.505-4.462l5.71-9.844-5.295,8.714c.133-4.023,11.492-17.175,20.552-34.815,9.678-15.8,15.831-34.317,26.354-50.463,3.831-8.4-2.8,7.734,3.488-4.5,1.086.109-2.677,5.865-.216,3.2,6.342-11.918,12-18.646,19.367-33.649l1.008-.229c9.124-19.784,19.628-36.242,24.2-50.159,2.053-5.247,3.584-8.677,4.837-11.232,1.185-2.58,2.128-4.27,3.056-6,1.833-3.461,3.761-7.045,6.962-18.368,1.344-2.747,2.77-5.478,4.025-8.262,3.293-9.491,1.115-7.214,4.958-17.651.432.847,4.616-13.282,3.311-6.871a148.834,148.834,0,0,0,8.654-39.122,104.7,104.7,0,0,0-.593-22.825,65.023,65.023,0,0,0-8.55-24.678,133.165,133.165,0,0,0-11.834-11.876,81.764,81.764,0,0,0-11.337-8.539c-.174-.522-6.676-5.551-10.338-9.433a20.817,20.817,0,0,1-3.245-3.94c-.07-.4.689.559,3.885,3.306,1.069.959,3.036,2.716,2.74,2.765.66.281,1.382.54,2.078.8a111.5,111.5,0,0,1-8.108-8.88A36.113,36.113,0,0,1,637.1,276.6l-.759-2.354a14.414,14.414,0,0,1-.48-2.248,18.922,18.922,0,0,1-.068-4.865A40.556,40.556,0,0,1,639,255.772c-2.341,4.81-3.649,10.881-3.1,6.645,1.442-4.9,3.82-9.969,6.1-15.437l-.816,3.62,5.071-11.83c1.663-3.857,3.477-7.687,5.231-11.526l-2.142,2.869c5.491-11.177,8.578-14.538,13.831-27.635,2.3-5.982-6.268,10.1-.572-1.8,7.955-14.706,20.5-36.422,31.539-54.641-1.772,1.271,1.133-3.68,4.015-8.833l1.018-.182c5.391-9.948,6.9-11.447,8.377-12.934,1.5-1.466,2.885-3,8.7-12.51l-.632,1.939,1.9-5.813c2.544-4.343,4.289-7.024,5.645-8.89a48.634,48.634,0,0,1,3.407-3.947,52.035,52.035,0,0,0,3.579-4.311c.782-1,1.689-2.225,2.775-3.779.535-.782,1.123-1.642,1.773-2.591a37.11,37.11,0,0,0,2.45-3.9,17.412,17.412,0,0,1-3.1,3.836c-.5.4-.605.19-.322-.488.257-.647,1.289-2.191,2.246-3.9a37.279,37.279,0,0,1,3.576-5.463c-.257.722-.5,1.476-.751,2.321a14.664,14.664,0,0,1,2.965-3.807,4.756,4.756,0,0,1,1.367-.806,8.6,8.6,0,0,1,1.957-.694c-1.245.6-1.435,1-.63.917a42.351,42.351,0,0,1,5.969-.663,15.812,15.812,0,0,0-4.134,1.383c3.5-1.383,8.2-1.266,13.129-.068,2.706,1.12,5.853,2.581,9.182,4.257l10.3,5.208c6.7,3.36,12.461,6.377,14.609,8.064,0,0,6.177,3.306,13.062,6.993,6.858,3.7,14.488,7.664,17.526,8.789-5.226-2.149,8.007,5.7,3.778,4.267a178.865,178.865,0,0,1,15.969,8.4c6.219,3.779,12.506,7.788,15.713,10.608l-1.383-.824c12.814,9.07,23.521,17.027,33.469,25.276a174.336,174.336,0,0,1,27.591,27.88c-.119-1.559,8.822,10.12,7.42,6.619A139.713,139.713,0,0,1,938.4,205.278c1.609,2.76,3.35,5.473,4.569,8a35.62,35.62,0,0,1,2.723,7.032,16.478,16.478,0,0,1,.523,5.655,15.611,15.611,0,0,1-1.19,4.571c-1.254,3.012-3.016,5.936-3.914,8.623-7.993,11.175-10.049,12.726-14.181,18.433l1.655-2.791c-13.732,21.3-17.713,27.479-27.91,43.3-4.771,8.064-4.155,10.221-13.6,24.078,2.391-4.912-1.214.92-4.655,6.151,2.108-3.407,2.581-4.571-2.289,2.063a45.027,45.027,0,0,1-2.19,4.085c-.081.029-.294.278-.26.1-5.593,8.812-4.443,7.388-1.653,3.436-.049.26.281-.01,1.263-1.156-3.347,4.283-7.586,10.509-11.271,15.619-1.869,2.5-3.56,4.815-4.943,6.427-1.359,1.611-2.347,2.51-2.755,2.549a21.554,21.554,0,0,1-7.115,5.907,27.262,27.262,0,0,1-8.809,2.185c-3.176.333-6.625.46-9.935.676s-6.565.4-9.772.6c-12.833.8-25,1.6-38.1,2.256-2.968-.483,3.145-1.2,10.75-1.676l-18.613.832c.162-.852,10.686-.837,16.411-1.2-5.561-.151-11.14-.063-16.925.187a79.457,79.457,0,0,0-18.35,2.643,50.422,50.422,0,0,0-17.666,9.275A110.938,110.938,0,0,0,725.868,397.2q-1.493,2.382-2.866,4.792l-1.032,1.209c.315.14-2.771,5.21-4.787,8.514-2.651,2.674-1.279-1.19-8.425,9.678-6.116,8.3-15.047,25.008-20.97,37.006,3.6-6.261,2.825-4.023,1.549-1.182-3.134,5.65-5.5,8.6-7.542,13.16l-1.159.091c1-.91-.745,2.942-2.832,7.3-2.048,4.381-4.382,9.3-4.748,10.45-2.3,2.95,3.95-9.221,4.223-10.9-11.64,23.127-5.887,11.536-17.191,34.779-5.306,12.744,1.921-1.85-.158,4.465-5.117,11.034-9.564,22.048-16.052,34.408l2.672-3.623c-9.119,20.938-15.044,33.238-22.475,46.721-16.785,39.059-26.5,60.52-30.74,71.131s-3,10.312.608,5.275c3.521-5.112,9.53-14.984,14.322-23.729,2.4-4.376,4.618-8.409,6.234-11.349,1.56-2.968,2.537-4.834,2.537-4.834,15.837-29.67,26.427-52.8,37.513-77.365,11.134-24.535,22.331-50.78,40.65-85.827" transform="translate(739.222 95.687)" fill="#606060"/><path d="M478.81,344.7l-.007.4a.822.822,0,0,0,.007-.4" transform="translate(765.492 551.098)" fill="#606060"/><path d="M476.582,343.353c.019.023.028.039.052.065a.222.222,0,0,0-.052-.065" transform="translate(761.941 548.94)" fill="#606060"/><path d="M480.689,348.732l-.008,0-.012.078Z" transform="translate(768.475 557.539)" fill="#606060"/><path d="M484.6,364.661c2.024,1.32,2.978,2.763,4.631,3.919a7.425,7.425,0,0,0,2.24-1.258,18.5,18.5,0,0,0,2.1-1.2,1.852,1.852,0,0,0,.595-.473c.115-.124.353-.32.517-.471A1.267,1.267,0,0,1,495,364.5c.387-.413,1.177-.5,1.425-1.346l.509.341c.13-.406.315-.746.717-.629l.065.153c.433-.213,1.463.421,1.653.3l.1.174a2.989,2.989,0,0,0,.39-.413l.109.312c.377-1.089.562-1.264,1.281-1.52l-.623-.655c.79,0,1.089-.587,1.3-1.076a2.884,2.884,0,0,1,1.585-1.612l.17.143a3.968,3.968,0,0,1,.223-2.167c.221-.637.593-1.242.892-1.9a4.727,4.727,0,0,0,.434-2.219,2.647,2.647,0,0,0-1.292-2.087c.4.241.374-.322.585-.382-.819-1.229-1.463-1.808-2.921-.819-.265-.431.226-.647.746-1.1a1.041,1.041,0,0,1-1.4.05l.341-.047c-.281-.234-.569-.457-.871-.662l-1,1.095c-.015-.67,1.285-1.26.668-1.43l-.91.811c-.293-.691.733-2.287.749-3.508-1.066-1.359-2.919-1.941-4.634-2.372-1.752-.453-3.3-.8-4.735-2.207l.04-.93c.165-1.346-1.321,1.759-1.24.538l-.481.556c-.083-.253-.3-.536-.067-.811-.377-.1-.411.12-.713.512l-.379-.845c-1.624-.709-2.874,1.042-4.53,1.139a3.75,3.75,0,0,0-3.948,1.049,8.671,8.671,0,0,0-2.263,3.646c-.176,1.733-1.59,2.274-2.986,3.373-1.383,1-2.677,2.57-1.769,4.368-.2.078.181.4.334.415a12.222,12.222,0,0,0-.226,3,6.628,6.628,0,0,0,.538,2.251,6.186,6.186,0,0,0,2.942,3.34,2.475,2.475,0,0,0,3.31-1.115c.86-1.206,1.344-3.685,3.823-5.119l.265-.12c.613-.34.813-.216-.684-.323,1.763-.127.192-.283.762-.382l.145.016c-.712-.127-.369-.283-.06-.345.3-.078.647-.1.086-.372a2.971,2.971,0,0,1,.629.224c-.187-.2-.5-.579.507-.25-.151-.5.549-.667-.676-1.884l.226.185c-.805-.8.016-.281-.314-.793.112.078.169.117.215.151-.706-.892.247-.523.036-.967l.46.522.169-.348-.19-.031c-1.078-1.609.9.813.434-.343.153.028-.189-.889-.382-1.8-.208-.9-.262-1.788.12-1.4-.078-.907.291,1.427.361.691a11.82,11.82,0,0,0,.382,1.367c.1-.519.6.874.686.193l.156.761c.1-1.478.649.962.759-.415.4-.616.143,2.305.543.808l.008,1.063c.086.182.26-1.263.338-.746-.117.644.085.559-.109,1.154-.022,1.058,1.037-1.268.886.564.582-1.157.512-.356,1-1.18-.226.514.443.317-.382,1.268-.066.079-.094.044.007-.148l-.372.665c-.475,1.354.772-.468.933-.127.065-.257-.072-.255.273-.662a2.416,2.416,0,0,1,.182.244l-.4.5.106.528.422-.674c-.06.453-.865,1.562.013.808.486-.418.512-.956.852-1.005a10.382,10.382,0,0,0-.288,1.9c.618-.649.661-.556.868-.608l-.558.541c1.057-.453-1.18,1.244-.317.922l-.431.33,1.3-.974c1.432-.694-1.167,1.126.735.146-.2-.044,1.323-1.087,1.188-.707l-.639.4c.2-.006.479-.154.39-.006-.372.174-.9.613-.748.611l-.811.475c.416-.206.813-.437,1.213-.665,0,0-.168.107-.02.016.132-.075.244-.14.341-.2.27-.146.451-.247.618-.338.359-.192.675-.341.9-.439a5.288,5.288,0,0,1,.8-.289,2.941,2.941,0,0,1,.346-.071h.018l-.377.031h0l.011,0,.029-.006.057-.007c.021,0,.052,0,.1,0-.036,0-.006,0,.03,0,0,0-.07-.007-.03,0a.646.646,0,0,1-.221-.07,2.089,2.089,0,0,1-.642-.312l.047.031a6.146,6.146,0,0,1-1.185-.816,13.657,13.657,0,0,1-1.652-1.44c.18.208.275.486-.278.242.6.67.088.468.865,1.317-.031,1.487-2-1.406-.179,1.707-.052.289-.579-.6-.715-.72l-.067-.193c-.045.432-.1.538-.252.606.062.263.247,1.037.363,1.523.065.331.081.562-.023.481-.164-.79-.184-.574-.211-.491a2.893,2.893,0,0,0-.247-.852c.049.252.078.411.1.545l-.047-.184a1.278,1.278,0,0,0,.132.655l.128.452c-.309-.873-.052.575-.427-.948-.244.174-.385,1.4-.823,1.676a3.861,3.861,0,0,1,.111-1.416l-.229.124c.011-.925.125-.473.184-.632-.166-1-.262-.286-.481.029-.13.2-.288.257-.319-.3l-.187.645v-.122a2.354,2.354,0,0,1-.33.881c.109-.757.374-1.684.226-1.707.091-.736-.4.2-.744.465a1.3,1.3,0,0,1-.275.738c-.114-.028.13-.717-.067-.465l.413-.894c-.3.886-.8.722-1.047,1.047.226-.7.527-.439.807-.912l-1.042-.356c-.67.5-.343.868-.886,1.559-.392.023-.992.494-1.086-.211l-.27.837c-.875.327-1.177.068-1.182-.915-7.421,4.286-5.159,8.28-5.159,8.28a1.665,1.665,0,0,0,2.03,1.359c.447-.047.94-.163,1.465-.246a7.328,7.328,0,0,1,.811-.083l.421,0c.195.034.465.109.7.176" transform="translate(754.481 541.093)" fill="#606060"/><path d="M617.043,148.835l.79-.38c-.137-.1-.376-.036-.79.38" transform="translate(986.505 237.279)" fill="#606060"/><path d="M602.631,155.154a1.338,1.338,0,0,0-.023.2c.039-.13.039-.179.023-.2" transform="translate(963.424 248.054)" fill="#606060"/><path d="M628.372,142.413l-.026.031c-.023.078-.042.146-.062.218Z" transform="translate(1004.477 227.684)" fill="#606060"/><path d="M656.315,208.845c7.2-7.934,10.318-9.028,16.9-17.983,3.5-3.973,6.817-8.555,9.977-12.656.564-2.736,4.33-5.213,5.359-8.176l1.31-.405a4.93,4.93,0,0,1,1.908-2.713l.127.187c.534-1.572,1.9-2.8,2.143-3.62l.135.184,1.078-1.653.059.463a52.274,52.274,0,0,1,4.254-7.5l-.908-.226a15.234,15.234,0,0,0,2.841-6.292,50.551,50.551,0,0,1,1.739-6.577l.208.1a39.437,39.437,0,0,1-.633-5.283,48.308,48.308,0,0,0-.666-4.917,14.153,14.153,0,0,0-1.818-4.717,11.242,11.242,0,0,0-5.182-4.452c1.149.517-.177-.73-.014-.839a11.277,11.277,0,0,0-6.27-1.7c-1.824.133-2.96.865-2.858,1.757-2.885.629-2.464.177-3.083-.39.132.372-.411.891-1.161,1.557-.754.65-1.643,1.416-2.485,2.144a4.41,4.41,0,0,1,.546-.813c-.518.426-.71.616-1.008.886l-.84.767-1.679,1.536,1.615.582c-2.126,1.182-1.6-1.008-3.168.72l.8.923c-2.74,1.884-5.355,1.809-8.428,3.23-10.6,8.5-18.446,20.987-28.215,28.973l-1.06-.185c-1.2-.7-.725,3.929-1.975,3.49l-.466,1.51c-.444.161-1.195.66-.962-.088a3.705,3.705,0,0,0-1.062,2.167l-1.554.6a30.951,30.951,0,0,0-4.555,6.113,45.607,45.607,0,0,1-4.32,6.536c-5.362,4.444-11.082,15.956-13.919,22.684-1.744,4.894-5.146,9.278-8.4,13.87a49.167,49.167,0,0,0-4.656,7.4,18.38,18.38,0,0,0-1.876,9.969,2.226,2.226,0,0,0,.411,1.744,15.1,15.1,0,0,0,2.868,8.207,14.6,14.6,0,0,0,5.006,4.2,13.673,13.673,0,0,0,2.746,1.073,17.851,17.851,0,0,0,6.758.543,19.248,19.248,0,0,0,7.7-2.612,23.373,23.373,0,0,0,5.381-4.413c2.6-2.968,3.593-5.338,2.172-6.044-.73-.361-2.121-.268-4.345.294-2.183.489-5.391,1.666-8.932,1.635l.047-.335a18.116,18.116,0,0,1-4.146.257,17.015,17.015,0,0,0-3.15.239c.393-1.032-.072-1.143-.555-1.481-.284-.226-.557-.5-.427-.767l.151-.013c-.894-.32-.785-1.375-.413-2.329a6.07,6.07,0,0,0,.66-3.329c.111.13.562.33.445.842.183-1.642.9-4.267,1.93-3.955.385-1.029,1.042-2.318,1.686-3.62s1.279-2.64,1.9-3.927c1.229-2.581,2.258-5.008,2.318-6.874l.146.34c-.087-2.217,1.057-2.209,1.623-4.324.177-.031.313-.125.35-.075.067-2.352,2.9-5.278,3.405-6.92l.648.273,2.034-3.568-.939,1.221c-1.343-1.492,2.665-1.98,3.288-5.122,1.7-2.191-.107-6.938,2.362-8.8.075-1.661.479,1.843,1.115-.257.849.522-.05,1.154.906,1.18.775-1.952,2.758-2.118,3.714-4.519l.684.382c.8-3.49,4.514-4.283,4.8-6.806,1.6-3.033,3.153-.351,4.219-3.984l1.676-.372c1.084-1.034-.3-1.648,1.149-2.591.438.5,1.738-1.263,1.6-.112,3.237-2.108,3.872-6.718,8.552-9.1-.205-1.656,2.024-2.963,1.906-4.184.5.294,3.554-3.48,2.471-.645-.1.239-.406.528-.543.353l.315.769c2.993-.967,2.97-4.207,5.156-5.954-.769.39-1.512,1.2-1.351.314l1.936-1.715.057.834,3.025-2.383-.928-.213c1.632-1.016,3.062-.429,3.854-2.692.289-1.11-2.04.408-.734-1.112,2.207-1.323,5.582-3.181,8.17-5.068-.8-.486-.129-1.024.427-1.741l.58.528c1.925-3,2.048.522,4.106-2.263l.111.605-.33-1.822c.7-1.559,1.271-1.5,1.829-1.531a1.193,1.193,0,0,0,.84-.307c.19-.174.021-.3,0-.93-.229.34-1.1-1.364-.242-1.479.033.273.078.538.135.8.213-.3.258-.686.525-.582-.11.475.156,1.125.469.93a5.177,5.177,0,0,0-.073,1.024,2.949,2.949,0,0,1,.571-1.481,1.8,1.8,0,0,0,.845.7c.272.164.477.411.158.85l.046.158a2.09,2.09,0,0,0,.273.512c.359.53.779,1.159,1.438,1.247-.832-.208-.679,1.136-1.607,1.016a2.041,2.041,0,0,1,1.191,1.143,1.4,1.4,0,0,1,.088.78,1.682,1.682,0,0,1-.442.9l-.089-.182a21.356,21.356,0,0,0-.782,4.688,7.742,7.742,0,0,1-1.962,4.522c.877.27-.509,1.772.728,1.915-1.107,4.148-6.068,4.852-4.2,8.241-1.084,1.684-2.12,1.328-2.918,2.014l.155-.489a53.935,53.935,0,0,1-4.786,6.141c-.649,1.32.475,2.552-1.475,4.267.028-1.06-.552-.177-1.168.561.314-.538.249-.837-.9-.153a1.864,1.864,0,0,1-.12.821c-.047-.026-.109-.013-.148-.078-.851,1.377-.512,1.3.033.782.053.093.191.127.479.068-1.715.733-2.926,3.594-3.921,3.025-2.887,3.864-4.2,7.256-6.432,10.613-.733-.026-.527-1.076.044-2.113l-1.66,2.318c-.624-.554.677-1.562,1.111-2.342-3.207,1.731-3.437,6.221-6.933,8.474l-.021,1.055-.236.112c.275.216.07,1.2-.221,1.728-.917-.036-1.263-1.107-2.49.431-1.533.741-2.56,3.615-3.562,5.429.8-.764.881-.234.774.294-.611.769-1.53.738-1.777,1.52l-.817-.559c.96.3-.877,2.612-.8,3.147-.918-.036.5-1.57.233-2.11-2.456,3.085-1.229,1.541-3.685,4.623-.78,2.089.959.3.974,1.627-1.038,1.549-1.676,3.378-3.494,4.633l1.1.042c-1.718,3.11-3.131,4.647-5.315,5.883-11.2,24.5,3.94,10.424,3.94,10.424,8.035-6.614,9.47-12.295,16.75-22.077" transform="translate(949.633 191.926)" fill="#606060"/><path d="M588.6,140.079l.8-.585c-.15-.078-.395.042-.8.585" transform="translate(941.028 222.984)" fill="#606060"/><path d="M584.47,134.359a2.186,2.186,0,0,0-.044.226c.054-.146.059-.2.044-.226" transform="translate(934.358 214.808)" fill="#606060"/><path d="M600.188,130.927l-.03.039-.059.244Z" transform="translate(959.414 209.321)" fill="#606060"/><path d="M619.9,219.664c6.752-10.153,9.894-11.957,16.256-22.835,3.453-4.914,6.748-10.426,10-15.328.525-3.053,4.475-6.284,5.535-9.6l1.357-.593a5.691,5.691,0,0,1,1.98-3.035l.129.187c.565-1.7,1.986-3.033,2.266-3.88l.131.19,1.175-1.7.031.468a28.641,28.641,0,0,1,5.037-7.121l-.852-.382c4.353-3.9,4.2-6.726,8.422-10.01l.125.195c1.119-3.3,3.18-5.1,5.228-7.134,2.022-2.017,4.247-4.358,5.021-8.6-.2,1.045.613-.192.777-.036,1.481-3.62,2.061-8.134.258-8.378.325-2.96.7-2.432,1.417-2.833-.767,0-1.123-2.622-1.793-4.8l.524.969a20.863,20.863,0,0,0-2.583-6.073,18.674,18.674,0,0,1-.712,1.8c-.525-1.549-.361-1.938-.145-2.308.176-.348.344-.691-.871-1.939l-.921.8a36.579,36.579,0,0,0-4.15-5.036,11.729,11.729,0,0,0-6.826-3.332,16.583,16.583,0,0,0-8.428,2.458,25.345,25.345,0,0,0-5.668,4.8c-3.046,3.449-4.986,6.554-7.38,9.73-4.564,6.346-9.109,12.5-14.228,17.557l-1.11-.049c-1.232-.577-.791,4.319-2.09,4.028l-.486,1.7c-.467.234-1.252.876-1.008.031a4.707,4.707,0,0,0-1.116,2.495l-1.644.842c-4.067,4.537-5.71,9.673-9.564,14.732-5.733,5.359-12.266,18.334-15.744,25.889-4.321,10.909-15.654,20.065-19.226,31.749a1.62,1.62,0,0,0-.3,1.406l-2.588,4.805c-.863,1.627-1.707,3.113-2.625,5.018a24.555,24.555,0,0,0-1.017,2.456,17.428,17.428,0,0,0-1.065,7.8,15.094,15.094,0,0,0,4.855,9.376,15.728,15.728,0,0,0,8.571,4.044,10.668,10.668,0,0,0,6.819-1.229c1.4-1,1.616-1.788.98-2.336-.668-.585-2.339-.741-4.465-1.811a12.028,12.028,0,0,1-3.2-2.464,8.487,8.487,0,0,1-2.2-4.194l.314-.044a5.122,5.122,0,0,1-.462-1.9,11.378,11.378,0,0,1,.05-1.461c.1-1.159.322-2.663.472-4.66,1.819.32,2.332-4.155,3.473-5.1l.07.182c.4-3.833,4.438-5.987,4.967-9.608a1.061,1.061,0,0,1,.114,1.2c.967-2.331,2.3-5.52,3.3-5.182,2.62-5.4,7.24-12.381,7.768-16.536l.115.374c.153-2.459,1.283-2.539,2.076-4.922.188-.044.335-.156.372-.1.294-2.617,3.469-6.055,4.111-7.929l.657.263,2.4-4.117-1.073,1.427c-1.292-1.551,2.923-2.407,3.771-5.959,1.939-2.58.284-7.674,2.945-9.964.15-1.835.418,1.988,1.182-.392.868.491-.1,1.281.9,1.211.906-2.23,3.012-2.614,4.095-5.385l.707.343c.964-3.937,4.928-5.247,5.27-8.082,1.737-3.558,3.395-.769,4.548-4.94l1.775-.65c1.164-1.294-.31-1.775,1.252-3.009.46.488,1.885-1.624,1.71-.348,3.415-2.854,4.158-7.926,9.057-11.364-.234-1.767,2.163-3.545,1.989-4.873.53.226,3.679-4.454,2.6-1.167-.1.281-.419.652-.567.489l.353.78c3.143-1.642,3.132-5.081,5.346-7.443-.8.577-1.559,1.6-1.423.611l1.972-2.227.112.871c1.012-1.024,1.973-1.936,2.908-2.711-.3-.068-.616-.135-.928-.184,1.6-1.05,2.856-.382,3.41-2.167.257-.936-1.736-.109-.6-1.18a4.978,4.978,0,0,1,2.753-.19,3.979,3.979,0,0,1,1.492.92c.3-.858.59-.686,1.087-.564l-.422.647c.994.114.853.694.611,1.052-.247.481-.531.772.333,1.364l-.559.138a10.554,10.554,0,0,1,1.676-.317c1.159.608.887,1.128.65,1.5-.226.424-.361.7.821,1.715-.252-.923,1.677-.733,1.419.663l-.753-.286c.182.655.494.9.288,1.328-.4-.372-1.015-.372-1.057.689a4.152,4.152,0,0,0-.837-.777,9.382,9.382,0,0,1,.988,2.2,10.479,10.479,0,0,0-1.321,2.692c-.406.943-.884,1.775-1.523,1.845,0,0-.608.808-1.245,1.8s-1.3,2.186-1.159,2.952c-.031-1.154-1.746.668-1.988-.413-.029,1.406-1.843,4.667-3.5,5.333l.106-.288c-4.275,3.846-5.151,8.3-9.128,11.637.85.369-1.192,2.183.128,2.367-2.3,4.847-7.7,6.185-5.98,9.857-1.275,2.022-2.361,1.762-3.25,2.643l.192-.566a85.847,85.847,0,0,1-5.179,7.484c-.691,1.549.512,2.729-1.534,4.914.021-1.164-.582-.1-1.226.8.327-.637.26-.956-.946-.021a2.219,2.219,0,0,1-.122.917c-.05-.021-.118.005-.156-.06-.883,1.645-.528,1.5.044.85.056.093.2.107.506-.005-1.809,1.081-3.006,4.439-4.073,3.984-2.965,4.735-4.2,8.706-6.385,12.8-.771.117-.609-1.073-.057-2.323l-1.627,2.869c-.683-.483.634-1.845,1.052-2.786-3.282,2.541-3.311,7.484-6.8,10.7l.047,1.159-.239.171c.3.177.151,1.3-.116,1.931-.965.161-1.4-.936-2.563,1.024-1.541,1.162-2.4,4.53-3.287,6.744.759-1.024.894-.463.832.138-.566.988-1.526,1.169-1.71,2.084l-.9-.416c1.024.1-.673,3.061-.546,3.625-.956.182.372-1.832.047-2.357-2.25,3.968-1.125,1.983-3.373,5.951-.59,2.474,1.024.088,1.183,1.528-.913,1.949-1.39,4.083-3.106,5.93l1.139-.242c-1.387,3.833-2.682,5.85-4.749,7.8-4.082,14.826-2.531,17.339-.2,16.149,2.373-1.172,5.687-6,5.687-6,7.263-9.246,7.993-15.681,14.555-27.921" transform="translate(913.426 158.786)" fill="#606060"/><path d="M563.292,124.1l.8-.624c-.151-.073-.4.057-.8.624" transform="translate(900.57 197.381)" fill="#606060"/><path d="M555.212,119.882a2.263,2.263,0,0,0-.026.234c.044-.153.044-.208.026-.234" transform="translate(887.61 191.663)" fill="#606060"/><path d="M574.626,113.978l-.026.044-.047.257Z" transform="translate(918.574 182.224)" fill="#606060"/><path d="M596.7,203.621c6.869-10.645,10.045-12.661,16.185-24.283,3.326-5.307,6.419-11.242,9.378-16.6.359-3.168,4.107-6.908,4.918-10.424l1.325-.764a6.228,6.228,0,0,1,1.734-3.347l.148.174c.421-1.809,1.732-3.35,1.941-4.249l.151.177,1.018-1.894.078.473a31.946,31.946,0,0,1,4.335-7.97l-.9-.26c3.943-4.628,3.448-7.464,7.256-11.494l.151.174c.725-3.54,2.459-5.652,4.22-7.781,1.716-2.113,3.638-4.2,4.426-8.568-.179,1.078.612-.218.777-.065a19.036,19.036,0,0,0,1.307-5.868c.042-1.764-.434-3.171-1.325-3.178-.049-3.2.337-2.679,1.008-3.228-.782.083-1.457-2.56-2.983-5.018.314.314.583.665.873,1.016a13,13,0,0,0-5.564-5.761,11.182,11.182,0,0,1,.455,2.043c-1.424-1.263-1.559-1.658-1.6-2.108-.081-.374-.163-.847-2.209-1.167l-.241,1.2a51.718,51.718,0,0,0-6.634-1.143,20.385,20.385,0,0,0-6.105.075A36.261,36.261,0,0,0,619.179,91a72.6,72.6,0,0,0-8.7,9.59c-5.062,6.614-9.5,12.955-14.759,18.29l-1.121-.013c-1.251-.543-.793,4.444-2.1,4.194l-.481,1.757c-.47.257-1.262.943-1.021.07a5,5,0,0,0-1.112,2.594l-1.65.933c-4.036,4.847-5.637,10.159-9.332,15.593-5.655,5.826-11.669,19.634-14.639,27.692-3.633,11.583-14.22,22.017-16.609,34.738a1.876,1.876,0,0,0-.135,1.564,43.089,43.089,0,0,0-2.75,12.487,23.874,23.874,0,0,0,.044,2.8,21.973,21.973,0,0,0,1.651,7.18c2.357,5.749,8.326,10.8,14.423,11.437a10.736,10.736,0,0,0,6.993-1.357c1.4-1.037,1.609-1.837.952-2.368-.684-.569-2.4-.663-4.605-1.684a12.718,12.718,0,0,1-6.17-6.923l.345-.049a15.632,15.632,0,0,1-1.907-4.654c-.4-1.549-.821-2.994-1.445-4.782.919-.221,1.045-1.193,1.126-2.326s.126-2.425.582-2.963l.112.153c-.479-3.615,3.263-6.245,3.461-9.956a1.069,1.069,0,0,1,.228,1.2c.767-2.458,1.726-5.871,2.774-5.634,2.126-5.762,6.125-13.316,6.351-17.575l.146.372c-.057-2.524,1.123-2.685,1.726-5.19.184-.06.325-.187.364-.135.07-2.708,3.109-6.437,3.6-8.415l.673.213,2.183-4.361-1,1.528c-1.359-1.463,2.78-2.679,3.469-6.336,1.817-2.752-.06-7.82,2.523-10.33.081-1.882.5,2,1.178-.473.888.444-.061,1.307.945,1.175.86-2.3,2.942-2.827,3.934-5.709l.721.312c.907-4.023,4.792-5.587,5.116-8.456,1.7-3.675,3.371-.938,4.5-5.2l1.782-.72c1.156-1.349-.341-1.793,1.228-3.093.469.481,1.887-1.7,1.722-.405,3.422-2.978,4.139-8.17,9.142-11.7-.232-1.8,2.185-3.641,2.025-4.961.527.2,3.765-4.363,2.625-1.128-.1.27-.427.642-.572.473l.341.785c3.15-1.544,3.155-4.933,5.492-6.97-.811.47-1.612,1.393-1.423.444.687-.673,1.389-1.31,2.093-1.939l.026.873c1.084-.889,2.188-1.7,3.3-2.453l-.939-.252c1.816-.987,3.119-.257,4.231-2.391.484-1.066-2.12.117-.539-1.216a39.068,39.068,0,0,1,8.914-2.162c-.425-.824.285-.954.875-1.193l.137.769c.548-.314.631-.314.7-.216a.981.981,0,0,1,.051.553c-.01.465-.192.9.125.58l-.284.475a6.66,6.66,0,0,1,.957-1.344c.821-.361.683.159.457.416-.1.146-.2.27-.14.333.036.062.3.052.942.377-.374-.621,1.536-1.014,1.485.314-.265-.052-.52-.1-.791-.125.265.533.613.733.471,1.159-.439-.346-1.055-.094-.967.652a7.384,7.384,0,0,0-.926-.5,3.958,3.958,0,0,1,1.2,1.684,10.675,10.675,0,0,0-1.207,2.63c-.394.969-.889,1.876-1.55,2,0,0-.627.9-1.3,2.082s-1.368,2.638-1.157,3.425c-.1-1.242-1.772,1.027-2.089-.086.026,1.544-1.4,5.224-2.942,6.123l.064-.3c-3.718,4.5-4.012,9.08-7.591,12.976.9.257-.925,2.354.414,2.36-1.768,5.177-7.022,7.188-4.951,10.663-1.084,2.188-2.2,2.053-3,3.041l.135-.6a83.14,83.14,0,0,1-4.548,8.09c-.568,1.629.715,2.7-1.182,5.1-.062-1.18-.593-.052-1.175.92.284-.673.191-.99-.953.062a2.2,2.2,0,0,1-.057.941c-.049-.016-.114.015-.161-.047-.769,1.744-.426,1.564.1.857.062.089.212.091.507-.049-1.736,1.253-2.757,4.732-3.851,4.358-2.692,5.021-3.778,9.114-5.832,13.407-.771.159-.644-1.058-.133-2.355l-1.54,3c-.7-.455.576-1.9.964-2.879-3.211,2.739-3.072,7.775-6.541,11.167l.068,1.175-.239.184c.31.166.177,1.315-.082,1.97-.965.195-1.417-.9-2.568,1.115-1.544,1.216-2.376,4.662-3.276,6.928.773-1.05.905-.481.837.13-.574,1.008-1.541,1.208-1.733,2.141l-.9-.413c1.03.086-.7,3.121-.577,3.7-.961.192.39-1.871.069-2.4-2.31,4.046-1.157,2.022-3.464,6.068-.639,2.516,1.026.094,1.155,1.556-.961,1.986-1.473,4.176-3.271,6.034l1.157-.234c-1.536,3.89-2.887,5.956-5.067,7.882-9.676,30.06,4.981,10.587,4.981,10.587,7.857-9.395,8.888-16.073,15.692-28.792" transform="translate(870.912 133.506)" fill="#606060"/><path d="M150.691,243.909l-2.19-4.355c-.1.151.4,1.284,2.19,4.355" transform="translate(237.397 382.99)" fill="#606060"/><path d="M130.483,227.6c.224.309.483.663.681.936a6.965,6.965,0,0,0-.681-.936" transform="translate(208.611 363.875)" fill="#606060"/><path d="M125.325,174.952l-.044.213c-.044.343-.093.746-.133,1.055Z" transform="translate(200.082 279.707)" fill="#606060"/><path d="M402.963,581.691c-9.09-13.384-15.99-24.582-21.954-34.636-5.969-10.127-11.1-19.166-16.232-28.189-5.127-9.046-10.257-18.152-16.053-28.677-5.774-10.533-12.261-22.464-19.667-37.352-3.415-7.157-6.749-14.483-9.964-21.91q-2.378-5.675-4.771-11.383l-4.985-11.414a190.413,190.413,0,0,1-8.386-22.064,66.1,66.1,0,0,1-2.224-10.551l-.224-2.5-.021-2.38a25.758,25.758,0,0,1,.6-4.613c.473-6.346,4.345-14.907,10.06-23.521,2.921-4.447,5.889-8.963,8.732-13.288a93.4,93.4,0,0,0,7.274-13.584,67.427,67.427,0,0,0,3.607-6.718,68.754,68.754,0,0,0,2.3-10.793c.3-1.884.33-3.732.538-5.561.086-1.8.169-3.568.249-5.273l.218.424c-.736-10.06-2.918-20.616-4.408-25.094l.312.33c-.98-3.727-2.118-7.365-3.306-10.964l.889,1.772c-2.739-7.721-5.759-15.348-8.654-22.7-2.879-7.237-5.6-14.667-8.485-21.427l-.343,1.479a250.5,250.5,0,0,0-16.04-32.848c-5.052-8.909-10.1-17.347-16.606-29.654l.379.218A311.179,311.179,0,0,1,253.1,109.715c-3.168-6.258-5.889-12.357-9.478-19.366-3.659-6.848-8.181-14.657-16.357-21.2,4.023,3.267-1.318-1.848-.949-1.689-.936-.772-1.962-1.46-2.97-2.162L220.4,63.5c-1.913-1.234-4.028-2.167-5.987-3.191a54.794,54.794,0,0,0-11.749-3.875c-7.256-1.453-12.341-.8-12.456.055-6.6-.049-9.218.491-10.489.4-1.271-.049-1.136-.346-2.045-.517.122.411-2.656,1.112-6.5,2.451A123.309,123.309,0,0,0,157.975,64.2c1.346-.7,2.669-1.458,4.046-2.126a121.813,121.813,0,0,0-12.513,6.31l-11.861,6.687,5.374-1.281c-12.835,6.588-4.059.187-16,7.173l.735.985c-17.594,9.418-28.74,13.451-46.123,22q-6.615,3.61-13.287,7.256c-4.449,2.435-8.877,4.852-13.339,7.565-8.88,5.346-18.072,11.494-25.476,20.234a58.425,58.425,0,0,0-5.044,6.988,58.923,58.923,0,0,0-3.82,7.765,55.207,55.207,0,0,0-3.94,16.6,73.712,73.712,0,0,0,.392,16.591,105.761,105.761,0,0,0,3.285,15.826,190.356,190.356,0,0,0,11.229,29.26c4.322,9.238,8.768,18.332,13.443,27.18C54.32,276.963,64.3,293.8,74.331,309.775l1.089,3.282c-.179,1,3.248,4.977,6.739,9.1,3.532,4.1,7.271,8.235,7.612,9.777,1.9,2.235,3.87,4.407,5.8,6.611,1.3,2.11,4.288,6.372,1.375,3.1a105.628,105.628,0,0,0,9.291,10.691l4.953,7.212a361.447,361.447,0,0,0,31.37,33.6,101.426,101.426,0,0,0,19.187,14.462,59.209,59.209,0,0,0,12.014,5.094,60.267,60.267,0,0,0,13.324,2.245,118.706,118.706,0,0,0,17.277.127c6.011-.26,12.266-.769,18.339-.444,6.079.307,11.975,1.419,17.045,4.257,5.107,2.822,9.68,7.469,13.859,12.916,4.161,5.421,8.189,11.7,12.269,17.643,4.049,5.982,8.043,11.882,11.9,17.583,7.656,11.45,14.787,22.118,20.811,31.128,34.327,50.463,65.806,114.184,97.734,167.727a39.236,39.236,0,0,0,3.823,6.162c9.044,16.741,18.009,33.521,26.749,50.424,0,0,7.965,15.354,18.4,35.468,2.586,5.042,5.325,10.382,8.132,15.853,2.817,5.366,5.58,11.409,9.984,17.048a32,32,0,0,0,8.03,7.516l2.461,1.526c.863.408,1.762.743,2.643,1.1a24.661,24.661,0,0,0,5.395,1.468c7.305,1.24,14.1-.626,19.574-3.282A35.37,35.37,0,0,0,514.3,788.542a26.2,26.2,0,0,0,4.886-11.8,21.105,21.105,0,0,0,.086-4.475,24.68,24.68,0,0,0-.561-2.871c-.387-1.323-.824-1.416-1.058-.5a16.55,16.55,0,0,0-.489,2.438c-.1.556-.12,1.19-.291,1.887-.2.691-.418,1.458-.66,2.305a25.949,25.949,0,0,1-7.812,11.752,30.137,30.137,0,0,1-8.553,5.346,27.39,27.39,0,0,1-11.728,2.341A19.465,19.465,0,0,1,475.8,790.47c-3.706-3.134-6.59-7.89-9.218-13.62l.9,1.047c-1.692-3.275-3.241-6.7-4.813-9.925q-2.335-4.838-4.483-9.283c-2.877-5.938-5.6-11.377-8.274-16.5-5.307-10.267-10.372-19.288-16.05-28.511.052-3.888-11.9-22.838-14.847-29.579l.46.541c-10.317-16.157-17.82-35.154-27.965-50.611.476.551,1.1.658,3.207,4.337-6.749-11.619-16.2-27.373-15.813-28.748-16.125-27.739-38.729-66.424-50.985-83.02l.985,1.05c-7.076-9.4-8.082-12.828-15.515-23.623-.262-.678-.7-1.5-.567-1.406-7.684-10.239-20.065-31.357-26.1-39.743l.221-.938-14.033-21.177L278,448.783c-1.7-.852-4.088-5.029-7.443-10.834-3.373-5.7-7.583-13.576-14.964-20.33a36.263,36.263,0,0,0-11.583-8.217,42.076,42.076,0,0,0-13.862-3.184c-9.322-.473-18.145,1.216-27.082,1.331-8.415,1.416,7.352-1.889-5.236-.46-.452-.972,5.834-.941,2.557-1.559a61.741,61.741,0,0,1-16.216-.4,57.791,57.791,0,0,1-16.643-5.4l-.138-.959c-8.5-3.971-15.192-10.611-20.977-16.78-5.793-6.307-10.917-12.133-15.863-16.611-7.108-7.466-8.937-10.463-10.863-13.488-1.9-3.048-4.07-5.987-11.312-13.908-1.481-2.368-2.872-4.8-4.283-7.209-5.434-7.354-4.992-4.454-10.6-12.937.845.148-6.928-10.811-3.022-6.294-6.172-9.678-12.848-19.2-19.566-29.818A258.343,258.343,0,0,1,51.342,245.57c-4.1-5.265-9.99-19.41-12.705-23.456.073-.473-2.827-7.417-4.433-12.427a27.5,27.5,0,0,1-1.354-4.9c.044-.408.525.8,2.206,4.615.535,1.318,1.422,3.685,1.162,3.6l1.424,1.59c-2.352-8.08-4.751-15.148-6.549-22.284-1.783-7.1-2.869-14.382-1.853-21.991-.912,4.446-.585,10.723-1.151,6.562A49.687,49.687,0,0,1,30.2,162.721a21.954,21.954,0,0,0-.13,2.986,41.485,41.485,0,0,1,9.392-18.056c-.811.559-1.645,1.125-2.409,1.749a46.214,46.214,0,0,1,9.21-8.308c3.046-2.227,6.234-4.553,11.276-8.4,4.509-3.625-9.553,4.839.34-1.767,6.538-3.792,15.385-8.139,24.509-12.838,9.15-4.7,18.75-9.686,27.523-14.381-2.063.114,2.646-2.44,7.383-5.26l.933.372c17.983-11.141,7.6-2.235,25.541-13.1l-1.362,1.367,4.083-4.1c7.9-5.2,10.4-6.216,12.916-7.089,1.268-.442,2.562-.977,4.634-1.9,2.063-.985,4.878-2.388,9.327-4.389-3.61,1.294-4.628,1.18-3.584.405a22.955,22.955,0,0,1,8.88-3.165c-.73.424-1.458.785-2.165,1.247,2.51-.65,4.184-1.146,5.665-1.39.741-.143,1.429-.275,2.147-.382.72-.055,1.466-.1,2.318-.117-1.51.307-1.876.6-.954.748a16.292,16.292,0,0,0,2.365.086c1.115.109,2.586.01,4.4.158a48.028,48.028,0,0,0-4.873.845,43.429,43.429,0,0,1,13.753.249c1.281.418,2.6,1.053,4.02,1.554,1.37.665,2.83,1.25,4.257,2.009,1.416.79,2.9,1.484,4.275,2.409l2.089,1.294c.611.434,1.216.865,1.811,1.292,4.647,3.576,7.835,8.178,8.667,10.335,0,0,.816,1.234,2.017,3.269s2.762,4.9,4.376,8.062c3.207,6.362,7.162,13.737,9.106,16.063-3.15-4.353,3.508,8.651.8,5.39,3.942,5.7,14.576,22.838,17.916,30.166l-.852-1.263c14.2,26.032,26.643,42.973,36.157,67.344.159-.717,1.567,2.105,2.757,4.714s2.31,4.959,2.212,3.163a251.071,251.071,0,0,1,12.235,34.1c2.755,9.717,4.194,17.212,6.554,21.663a54.125,54.125,0,0,1,.587,7.261c-.091,1.936-.158,3.493-.361,4.839-.249,1.32-.465,2.479-.689,3.667-.325,1.141-.632,2.305-.912,3.7l.262-2.625a45.127,45.127,0,0,1-3.833,12.765,87.033,87.033,0,0,1-4.953,9.348c-3.412,5.642-6.931,10.5-11.777,18.022a61.259,61.259,0,0,0-4.423,9.743c-1.136,3.4-3.168,7.362-5.395,15.444.845-5.335-1.3,1-1.759,7.737.151-2.118.221-3.521.068-3.308a7.778,7.778,0,0,0-.4,1.658,27.5,27.5,0,0,0-.46,4.761c.195,1.221.486,3.022.759,4.719-.049.078-.042.41-.135.249a40.347,40.347,0,0,0,1.679,7.424,20.2,20.2,0,0,0-.577-3.76c.135.224.2-.205.151-1.7.372,5.408,2.406,12.516,4.457,18.236,2.037,5.743,3.919,10.239,3.62,11.037,2.905,6.845,5.837,12.965,8.352,18.771,2.609,5.985,5.205,11.6,7.851,17.006,5.294,10.816,10.681,20.86,16.544,31.6.764,2.705-2.373-2.11-5.793-8.365q4.027,7.718,8.22,15.333c-.811.265-5.122-8.594-7.677-13.313,8.2,19.148,21.4,36.954,32.7,58.342l3.142,3.966.645,1.294c.26-.242,3.459,4.161,5.4,7.17,1.146,3.3-1.577.665,4.675,10.876,4.381,8.49,14.66,22.742,22.056,32.716-3.662-5.608-2.11-4.046-.281-1.809,3.391,4.943,4.712,8.228,7.635,11.83l-.476,1.032c-.6-2.454,9.777,12.261,11.419,13.8,1.383,3.194-5.9-7.2-7.186-8.129,14,19.49,7,9.742,20.988,29.225,8.038,9.959-.6-2.427,3.662,2.04,6.715,9.062,13.7,17.609,20.572,28.584l-1.619-3.864c12.7,16.973,19.522,27.69,26.346,40.226,11.224,16.216,19.093,29.389,25.06,39.514,2.856,5.13,5.434,9.405,7.422,13.077,1.962,3.683,3.592,6.637,4.93,8.953,5.291,9.278,5.782,8.2,4.392,2.609a197.1,197.1,0,0,0-9.163-24.418c-.954-2.149-1.868-4.215-2.708-6.1-.912-1.85-1.739-3.529-2.435-4.943-1.411-2.828-2.295-4.6-2.295-4.6-1.707-3.578-3.514-6.957-5.307-10.224s-3.493-6.482-5.262-9.545c-3.623-6.068-6.98-11.934-10.572-17.383-3.508-5.512-6.991-10.806-10.579-15.949-3.529-5.195-7.157-10.237-10.85-15.343-14.727-20.452-31.3-41.235-52.482-71.346" transform="translate(26.28 88.849)" fill="#606060"/><path d="M196.154,324.5l.257-.32c-.153.068-.267.169-.257.32" transform="translate(313.603 518.292)" fill="#606060"/><path d="M194.772,326.839l.089-.028a.138.138,0,0,0-.089.028" transform="translate(311.394 522.493)" fill="#606060"/><path d="M198.12,318.516l.016.016a1.1,1.1,0,0,0,.13.013Z" transform="translate(316.747 509.231)" fill="#606060"/><path d="M222.221,337c-.749-3.43.387-5.086-2.022-8.118a11.935,11.935,0,0,0-1.572-2.391c-.883-1.128-1.866-2.211-2.768-3.173-.86.026-1.375-.616-1.946-1.272-.587-.6-1.208-1.272-1.949-1.219l-.075-1.04a1,1,0,0,1-1.26-.694l.1-.2c-.761.192-1.281-.569-1.637-.463l.078-.213c-.236-.117-.481-.2-.72-.3l.187-.26a4.662,4.662,0,0,1-3.043-1.081l.034,1.012c-1.949-1.809-2.487-.032-4.355-1.617l-.018-.229c-.858,1.092-1.726.558-2.74.159-.985-.446-2.092-.728-2.679.572.143-.328-.32-.408-.4-.619-.9.437-1.858,1.043-.941,2.55-.642.27-.814-.229-1.271-.769.429.673.037,1.169-.382,1.536l.036-.384a7.546,7.546,0,0,0-1.12,1.154l1.154.932c-.85.2-1.3-1.242-1.655-.431l.818.9c-.842.642-2.609-.159-3.908.291-1.45,2.006-1.33,4.833-.655,7.409.694,2.646,1.663,4.948,1.694,7.505l-.881.291c-1.354.28,2.682,1.206,1.52,1.541l.923.453c-.159.21-.229.626-.684.405.239.564.465.528,1.058.788l-.488.86a4.467,4.467,0,0,0,.774,1.661,5.381,5.381,0,0,0,1.086,1.164,4.8,4.8,0,0,1,1.661,1.747c-.27,2.672,3.464,4.943,5.73,5.876,1.832.437,2.5,2.165,3.548,3.95a10,10,0,0,0,1.947,2.4,4.128,4.128,0,0,0,2.97.871c.057.223.538-.057.585-.2l1.718.684c.6.19,1.24.327,1.866.478a8.863,8.863,0,0,0,2.744.127,7.3,7.3,0,0,0,2.466-.514,5.523,5.523,0,0,0,2.131-1.2c1.13-1.039,1.513-2.23.707-3.534a11.742,11.742,0,0,0-1.9-2.186c-.408-.4-.852-.839-1.341-1.317a16.243,16.243,0,0,1-1.357-1.754l0-.294c-.865-.66-1.07-.777-1.939.52.252-1.788-.645-.268-.722-.957l.062-.132c-1,1.128-.6-1.412-1.6-.572.086-.117.32-.551.442-.522-.442.052-1.167.112-.647-.823-1-.286-1.861-1.554-3.532-.868l.231-.179c-1.084.527-.53-.268-1.294-.2a1.51,1.51,0,0,1,.143-.227c-1.143.434-1.133-.959-1.764-.93l.5-.478c-.27-.2-.517-.45-.78-.673l.13.393c-1.549,1.12.426-1.367-1-1.154-.213-.686-4.054,1.2-3.781-.008-.941.2,1.375-.559.5-.629.808-.582.655-.143,1.229-.715-.686-.179.361-1.294-.559-1.458l.634-.444c-.834.042-.824-.45-.787-.894s.286-.556-.421-.418c-.865-.2,2.056-1.061.392-.9.327-.135.66-.26,1-.369.125-.127-1.385.169-.933-.075.707-.094.484-.231,1.2-.234.51-.156.073-.193-.322-.351-.382-.13-.727-.405.317-.322-1.663-.421-.761-.382-2.053-.821.725.2-.031-.4,1.679.392.137.059.119.075-.172-.024l1.024.354c1.918.629-1.138-.588-.891-.712a3.21,3.21,0,0,1-.975-.39l.1-.14.912.5a3.377,3.377,0,0,1,.507.088l-1.13-.632c.574.169,2.5,1.451.9.276a19.678,19.678,0,0,1-1.879-1.315,16.846,16.846,0,0,1,2.394,1.185c-1.2-1.136-1.128-1.141-1.323-1.438l1.016,1.024c-1.255-1.632,2.193,2.3,1.177,1.047l.649.783-1.92-2.37c-1.575-2.427,1.845,2.384-.257-.92.044.242-1.882-2.612-1.318-2.172l.72,1.185c-.08-.278-.353-.784-.14-.564.343.661,1.04,1.718,1.008,1.495l.839,1.5c-.408-.738-.775-1.479-1.107-2.23.829,1.25.3-.372,1.115,1.336.031,0,.52.84-.01-.984.328,1.138.595,1.6.967,2.931-.408-1.3-.405-2.271-.068-.912l.021.148c.216.709.161.254.218-.109.037-.382.171-.66.234.127.039-1.239.13-.491.211-2.058.26-.637.364.275.385.7.047.437.07.442.785-1.526.291-.026-.1,1.149-.109,1.411l-.114.169c.387-.049.494.05.634.341.286-.2,1.357-1.552,1.349-.9-.517.418-.343.442-.265.543-.127.008-.294.185-.522.629a1.6,1.6,0,0,1,.358-.244l-.114.117c.281,0,.421-.159.429-.31a1.817,1.817,0,0,0,.278-.319c-.5.772.442.527-.463,1.219.684.572,2.235.873,3.059,1.523a1.4,1.4,0,0,1-1.354.265l.509.512c-.746.379-.608-.125-.855-.234-.827,1.315,1.983.893,1.25,2.313l.683-.078-.078.1A1.486,1.486,0,0,1,212,338c-.621.408-1.549.628-1.336,1.05-.533.6.712.85,1.231,1.211.031-.294.442-.346.72-.317.1.228-.546.59-.19.671l-.928.322c.857-.376,1.146.3,1.549.275-.66.341-.7-.187-1.245-.077l.523,1.34c.837.317.878-.324,1.77-.293.288.41,1.094.722.613,1.392l.819-.351c.85.769.852,1.377.063,2.118a21.591,21.591,0,0,0,4.815,2.872,4.208,4.208,0,0,0,3.012.068,4.153,4.153,0,0,0,2.006-2.487c1.487-3.756-1.351-5.268-3.2-8.795" transform="translate(299.023 504.448)" fill="#606060"/><path d="M42.441,100.447l-.348.335a.359.359,0,0,0,.348-.335" transform="translate(67.297 160.591)" fill="#606060"/><path d="M46.134,131.518a.5.5,0,0,0,.1.057c-.042-.047-.07-.057-.1-.057" transform="translate(73.757 210.266)" fill="#606060"/><path d="M37.829,105.611v-.018c-.039-.031-.06-.049-.1-.078Z" transform="translate(60.321 168.693)" fill="#606060"/><path d="M39.186,108.031c-.32,4.421-1.931,5.668-1.06,10.224a42.9,42.9,0,0,0,.832,6.624c1.362.928.213,2.8,1.4,3.916l-.709.517c.405.385.7.85.325,1.294l-.218-.01c.608.574.322,1.292.629,1.577l-.221-.01.151.741-.317-.1a4.2,4.2,0,0,1,.629,3.121l.9-.158c-.821,2.167,1.117,2.755.091,4.743l-.221-.005c2.588,2.131-1.227,3.911,1.279,6.115-.314-.273-.45.182-.668.182.377,1.094.639,2.279,2.409,2.095.062.816-.481.728-1.151.912.774-.094,1.182.577,1.31,1.206l-.335-.257.491,1.791,1.414-.535c-.3,1.013-1.749.462-1.281,1.344l1.208-.164c-.073,1.362-1.806,2.378-2.536,3.794.2,5.478,4.137,10.764,2.838,16.081l-.868.369c-1.307.32,2.193,1.047,1.006,1.442l.7.476c-.205.2-.4.59-.746.351.044.546.262.522.728.837l-.717.717c-.257,2.23,1.614,3.745,1.736,6.014-1.167,2.986,1.351,7.711,2.869,10.382,2.778,3.6-1.315,9.454,1.895,13.064-.151.179.348.424.5.385l.741,3.8s1.037,4.587,3,7.069c1.962,2.5,4.771,2.8,8.342-5.372l.3.018c.151-2.18-.018-3.472-1.778-4.506,1.689-.655-.226-1.7.223-2.308l.151.01c-1.642-.9.494-2.794-1-3.688.151.013.634-.073.73.19-.424-.808-1.078-1.9-.078-2.2-.733-2-.93-4.977-2.843-5.946l.3.029c-1.26-.517-.369-.946-1.107-1.671.122-.075.179-.151.236-.153-1.263-.593-.678-2.373-1.284-2.944l.67-.185-.5-1.611-.016.645c-1.918.169.907-1.479-.53-2.432.021-1.162-4.335-1.513-3.643-2.866-.985-.39,1.523.221.686-.486.972-.213.689.273,1.427-.091-.621-.728.741-1.526-.114-2.407l.754-.182c-1.637-1.058.567-2.658-.92-3.292-.871-1.247,2.108-1.307.364-2.453l.938-.725c.062-.631-1.344-.216-.959-.969.657-.07.372-.93,1.058-.645.769-1.676-1.939-2.838-.53-5.107-1.341-.234-.743-1.354-1.749-1.531.543-.14-.229-2.03,1.151-1.081.114.081.122.255-.1.276l.774.021c1.24-1.346-1.081-1.949-1.026-3.108-.2.369-.073.806-.634.582l-.047-1.063.668.127.151-1.611-.756.325c.3-.821,1.6-1.273.356-1.98-.676-.3-.956.871-1.318.1a16.67,16.67,0,0,0,1.076-4.067c-.873.237-.884-.119-1.11-.46l.764-.138c-1.242-1.253,1.632-.72.611-1.986l.551.055-1.655-.166c-1.681-1.058,1.518-.858-.743-1.988.2.53-1.666.457-1.416-.257l.767.083c-.205-.353-.528-.442-.4-.707.426.174,1.094-.008.91-.54l.969.26-1.479-.878c.712-.889-.426-2.045.587-2.487,0,0,.333-1.77-.863-2.045.754.27.925-.7,1.793-.52-.858-.359-1.666-1.609-.842-2.219l.107.091c.707-2.027-1.507-3.22-.6-5.062-.891.159-.486-.808-1.611-.483-1.312-1.723,2.076-3.49-1.531-3.87-.252-.813.761-1.045.912-1.484l.2.182a9.707,9.707,0,0,1-.476-3.129c-.387-.551-2.05-.533-1.707-1.593.676.294.528-.122.507-.507.117.239.364.3.774-.234a1.076,1.076,0,0,1-.447-.257.465.465,0,0,1,.161-.023c-.27-.629-.468-.507-.541-.2a.715.715,0,0,0-.405.13c.811-.72-.164-1.863.962-2.009-.364-1.92-1.632-3.243-2.128-4.842a1.112,1.112,0,0,1,1.346.6l-.257-1.136c.837-.028.507.634.686.98,1.3-1.419-1.458-2.749-.283-4.4l-.673-.307.107-.1a1.3,1.3,0,0,1-.962-.559c.717-.249,1.679-.042,1.6-.832.673-.647-.416-1.762-.821-2.573-.112.444-.52.314-.78.13-.034-.4.686-.642.366-.941l.982-.065c-.922.182-1.021-1.008-1.427-1.146.722-.242.639.6,1.193.686-.127-1.585-.065-.793-.192-2.378-.759-.832-.925.174-1.8-.216-.211-.746-.912-1.468-.34-2.339l-.865.286c-.7-1.4-.593-2.256.283-3.215-3.589-5.247-6.008-5.847-7.547-5.075A5.291,5.291,0,0,0,37.72,96.62c-1.92,4.246.657,6.419,1.466,11.411" transform="translate(59.193 149.408)" fill="#606060"/><path d="M54.737,127.128l-.33.26c.166-.026.3-.1.33-.26" transform="translate(86.984 203.247)" fill="#606060"/><path d="M59.952,147.206a.508.508,0,0,0,.094.016.119.119,0,0,0-.094-.016" transform="translate(95.849 235.342)" fill="#606060"/><path d="M50.443,131.132l0-.013-.1-.041Z" transform="translate(80.485 209.561)" fill="#606060"/><path d="M51.723,132.863c-.081,3.046-1.614,4.083-.5,7.107a20.439,20.439,0,0,0,1.19,4.439c1.4.46.364,1.892,1.6,2.5l-.676.452c.424.208.738.486.395.839l-.218.023c.637.309.392.842.709.993L54,149.24l.192.486-.322-.026a2.091,2.091,0,0,1,.8,2.045l.873-.239c-.689,1.606,1.253,1.718.351,3.233l-.216.031c2.666,1.052-.993,2.877,1.6,3.986-.325-.135-.431.2-.65.234.434.689.756,1.458,2.484,1.034.107.548-.431.577-1.079.819a1.057,1.057,0,0,1,1.354.6l-.346-.117.582,1.141,1.357-.613c-.239.746-1.689.621-1.182,1.143l1.175-.325c.005.941-1.637,1.944-2.271,3.051.509,3.75,4.644,6.609,3.682,10.533l-.821.437c-1.25.491,2.188.268,1.058.787l.712.182c-.19.182-.353.491-.7.4.073.367.283.3.754.424l-.652.65c-.119,1.6,1.78,2.248,2.03,3.792-.949,2.334,1.765,5.06,3.378,6.547,2.866,1.816-.681,6.931,2.607,8.656-.133.164.359.208.5.143l.943,2.476s1.279,2.955,3.29,4.158c2.017,1.234,4.644.59,7.539-6.045l.286-.073c.018-1.541-.213-2.375-1.934-2.614,1.562-.9-.307-1.1.083-1.643l.146-.034c-1.611-.184.312-2.04-1.149-2.261.145-.031.6-.216.7-.06-.447-.442-1.13-1.021-.192-1.484-.806-1.177-1.151-3.145-3.033-3.334l.291-.055c-1.234-.044-.405-.554-1.151-.868.117-.081.166-.145.221-.161-1.242-.1-.777-1.453-1.388-1.694l.634-.286-.572-.974.018.442c-1.832.564.793-1.221-.639-1.531-.039-.79-4.254-.031-3.662-1.115-.972-.044,1.479-.2.634-.486.925-.366.678.028,1.37-.385-.637-.356.634-1.2-.236-1.609l.717-.291c-1.637-.353.408-1.923-1.063-2.024-.907-.655,1.972-1.338.226-1.736l.868-.689c.029-.437-1.312.14-.98-.447.637-.187.312-.707,1-.657.66-1.284-2.03-1.505-.777-3.314-1.315.115-.79-.759-1.78-.676.522-.2-.327-1.315,1.068-.954.114.031.13.146-.081.2l.756-.138c1.138-1.143-1.154-1.089-1.159-1.876-.179.286-.031.551-.59.512l-.1-.7.658-.044.065-1.1-.72.361c.247-.605,1.494-1.151.247-1.388-.678-.078-.891.759-1.284.309a9.464,9.464,0,0,0,.845-2.911c-.842.314-.871.078-1.107-.107l.741-.231c-1.279-.611,1.562-.769.5-1.427l.543-.062-1.632.182c-1.7-.411,1.445-.834-.826-1.2.221.32-1.614.593-1.4.073l.756-.075c-.221-.2-.543-.205-.431-.405.426.047,1.076-.192.865-.515l.967.008-1.5-.333c.658-.712-.52-1.292.455-1.754,0,0,.236-1.227-.954-1.219.754.06.873-.613,1.739-.632-.863-.1-1.72-.8-.941-1.338l.109.044c.6-1.45-1.648-1.9-.839-3.259-.873.234-.522-.465-1.616-.083-1.385-.959,1.874-2.609-1.71-2.354-.291-.507.7-.8.826-1.112l.208.094a4.383,4.383,0,0,1-.629-2.014c-.411-.312-2.058-.083-1.772-.834.683.107.517-.151.476-.4.13.143.374.151.754-.255a1.268,1.268,0,0,1-.457-.114.983.983,0,0,1,.159-.036c-.3-.385-.486-.278-.543-.065a.98.98,0,0,0-.395.138c.767-.582-.257-1.219.847-1.455-.457-1.229-1.783-1.957-2.36-2.968a1.31,1.31,0,0,1,1.367.247l-.314-.725c.829-.114.535.364.733.572,1.216-1.089-1.588-1.661-.507-2.887l-.686-.13.1-.078a1.458,1.458,0,0,1-.982-.268c.7-.244,1.666-.208,1.549-.723.634-.5-.5-1.125-.951-1.624-.088.309-.5.263-.769.166-.055-.26.652-.5.317-.663l.975-.141c-.907.213-1.068-.569-1.479-.621.707-.231.668.338,1.221.34-.211-1.042-.107-.522-.315-1.559-.8-.483-.912.2-1.8.026-.247-.478-.985-.9-.46-1.531l-.847.27c-.769-.876-.709-1.458.112-2.173-3.849-3.209-6.3-3.462-7.791-2.817a3.967,3.967,0,0,0-2.009,2.144c-1.684,3.074,1,4.348,2.074,7.669" transform="translate(78.512 196.271)" fill="#606060"/></g></svg>