<svg xmlns="http://www.w3.org/2000/svg" width="1433.926" height="546.378" viewBox="0 0 1433.926 546.378"><path d="M399.034,92.485c0,65.358-63.061,104.913-116.382,114.666,41.852,17.765,37.259,123.258,85.419,123.258,10.9,0,20.642-4.58,30.395-14.333,4.012-4.012,6.3-5.728,9.741-5.728a6.017,6.017,0,0,1,6.309,6.308c0,4.58-4.592,14.9-10.9,24.074-18.346,26.37-45.284,48.16-84.271,48.16-103.777,0-44.148-170.27-96.888-170.27C212.7,258.175,187.48,337.3,187.48,375.705c0,9.741-3.444,12.037-12.037,12.037-17.21,0-52.172,3.444-61.357,3.444-6.877,0-10.889-3.444-10.889-13.185,0-32.679,57.333-219.01,74.53-280.356C189.2,57.51,204.1,46.622,219.579,35.721c-75.1,4.592-129.567,60.2-129.567,98.616,0,18.346,8.6,26.95,23.506,26.95,7.457,0,16.629-4.012,19.494-4.012,4.012,0,5.728,2.284,5.728,6.3,0,16.061-32.1,58.481-77.395,58.481C25.8,222.052,0,199.126,0,158.991,0,68.979,119.246,5.906,266.022,5.906,343.417,5.906,399.034,32.288,399.034,92.485ZM320.491,80.448c0-29.246-13.765-45.876-36.123-45.876-6.877,6.309-16.63,20.642-25.8,49.308-13.753,43.58-29.814,105.493-29.234,105.493C286.664,182.5,320.491,127.46,320.491,80.448ZM586.526,322.965c4.58-4.024,8.6-6.889,12.037-6.889a6.608,6.608,0,0,1,6.877,6.889c0,5.729-2.864,10.309-11.457,19.494-18.926,20.062-47.012,48.148-102.629,48.148-53.889,0-91.728-24.074-91.728-79.111C399.626,255.879,444.342,206,520.588,206c38.987,0,56.765,17.2,56.765,41.852,0,32.679-38.419,64.209-95.74,68.8,0,20.062,15.469,35.543,42.988,35.543C553.847,352.2,573.909,333.274,586.526,322.965ZM535.5,243.842c0-8.6-4.592-13.185-13.765-13.185-17.2,0-40.123,28.086-40.123,61.913C514.292,286.262,535.5,257.6,535.5,243.842Zm239.652,79.123c4.592-4.024,8.6-6.889,12.037-6.889a6.618,6.618,0,0,1,6.889,6.889c0,5.729-3.444,10.309-12.049,19.494-19.494,19.482-48.16,48.148-101.468,48.148s-91.74-28.086-91.74-76.246C588.822,254.731,634.686,206,708.648,206c43.58,0,59.629,18.346,59.629,40.135,0,23.506-14.913,36.691-33.827,36.691-13.185,0-22.938-7.457-22.938-18.926,0-12.6,8.6-17.765,9.173-24.654,0-4.58-3.432-7.445-10.321-7.445-16.617,0-41.271,30.383-41.271,71.086,0,33.827,21.79,49.308,45.864,49.308C740.179,352.2,761.4,335,775.154,322.965Zm2.3,18.346c0-36.7,18.926-73.962,18.926-94.6,0-9.741-3.444-10.889-3.444-18.346,0-12.617,30.383-21.21,63.641-21.21,12.605,0,19.494,5.16,19.494,14.9,0,22.938-18.345,59.049-18.345,96.888,0,14.913,8.592,23.518,18.913,23.518,9.753,0,14.333-4.592,21.79-12.049,4.012-4.012,6.308-5.728,9.741-5.728a8.175,8.175,0,0,1,8.037,8.025c0,6.309-3.444,10.889-9.185,18.346-12.037,15.481-36.691,37.839-72.8,37.839C796.376,388.89,777.45,367.681,777.45,341.31ZM853.708,98.794c20.63,0,32.1,13.185,32.1,30.383,0,22.938-20.642,47.58-42.419,47.58-17.778,0-32.111-13.753-32.111-30.951C811.277,122.868,831.918,98.794,853.708,98.794Zm54.469,129.567c0-12.617,30.963-21.21,64.209-21.21,12.617,0,19.494,5.16,19.494,14.9a73.305,73.305,0,0,1-1.716,16.049c5.161-8.025,32.679-30.951,67.654-30.951,36.111,0,59.049,24.074,59.049,63.061,0,49.876-38.419,118.678-108.937,118.678-24.642,0-40.7-12.037-44.136-15.481-6.889,26.95-18.926,88.864-18.926,114.1,0,18.914,10.889,26.938,23.506,26.938,5.161,0,8.025,2.3,8.025,6.889,0,9.173-26.37,30.951-64.209,30.951-30.383,0-47.58-18.346-47.58-44.716,0-51.592,16.049-83.7,33.815-168.554,12.617-60.2,13.2-79.123,13.765-92.308C912.189,236.966,908.177,235.817,908.177,228.361Zm86.567,131.3c32.111,0,45.864-64.221,45.864-95.172,0-14.913-5.148-21.79-17.766-21.79-10.9,0-22.938,10.889-30.382,28.1-6.888,14.9-16.061,48.148-16.061,72.234C976.4,353.347,982.707,359.656,994.744,359.656Zm130.727-18.346c0-36.7,18.926-73.962,18.926-94.6,0-9.741-3.444-10.889-3.444-18.346,0-12.617,30.383-21.21,63.641-21.21,12.617,0,19.494,5.16,19.494,14.9,0,22.938-18.346,59.049-18.346,96.888,0,14.913,8.593,23.518,18.914,23.518,9.753,0,14.333-4.592,21.79-12.049,4.012-4.012,6.308-5.728,9.753-5.728a8.172,8.172,0,0,1,8.025,8.025c0,6.309-3.444,10.889-9.173,18.346-12.049,15.481-36.7,37.839-72.814,37.839C1144.4,388.89,1125.471,367.681,1125.471,341.31ZM1201.73,98.794c20.642,0,32.1,13.185,32.1,30.383,0,22.938-20.63,47.58-42.42,47.58-17.778,0-32.111-13.753-32.111-30.951C1159.3,122.868,1179.94,98.794,1201.73,98.794ZM1413.3,337.3c5.729-4.024,9.741-6.889,13.185-6.889a7.114,7.114,0,0,1,7.445,6.889c0,5.728-3.432,10.309-12.6,19.482-12.617,12.617-37.839,33.827-79.691,33.827-53.9,0-93.456-24.074-93.456-79.111,0-55.617,44.716-105.493,120.974-105.493,38.987,0,56.753,17.2,56.753,41.852,0,32.679-38.407,64.209-95.74,68.8,0,20.062,18.346,35.543,40.135,35.543C1389.778,352.2,1404.111,343.595,1413.3,337.3Zm-29.247-93.456c0-8.6-4.58-13.185-13.753-13.185-17.209,0-40.135,28.086-40.135,61.913C1362.84,286.262,1384.049,257.6,1384.049,243.842Z" transform="translate(0 -5.906)" fill="#fff"/></svg>